<svg width="80" height="151" viewBox="0 0 80 151" fill="none" xmlns="http://www.w3.org/2000/svg">
<g clip-path="url(#clip0)">
<path d="M69.1035 13.9714C69.1035 11.7791 67.3226 10 65.1122 10H13.9981C11.7832 10 10 11.7791 10 13.9714V19.9286H69.1035V13.9714Z" fill="#8BC0E2"/>
<path d="M9.99988 19.9287V51.8708C9.99988 54.0654 11.7831 55.8355 13.998 55.8355H65.1121C67.3202 55.8355 69.1034 54.0654 69.1034 51.8708V19.9287H9.99988Z" fill="#8BC0E2"/>
<path d="M22.4936 22.8264C22.4936 24.1472 21.4088 25.2254 20.0731 25.2254C18.7419 25.2254 17.6593 24.145 17.6593 22.8264V17.3657C17.6593 16.0359 18.7396 14.9622 20.0731 14.9622C21.4088 14.9622 22.4936 16.0359 22.4936 17.3657V22.8264Z" fill="white"/>
<path d="M60.3636 22.8264C60.3636 24.1472 59.2855 25.2254 57.952 25.2254C56.6186 25.2254 55.5405 24.145 55.5405 22.8264V17.3657C55.5405 16.0359 56.6186 14.9622 57.952 14.9622C59.2832 14.9622 60.3636 16.0359 60.3636 17.3657V22.8264Z" fill="white"/>
<path d="M27.8884 34.3608H20.4008V38.4266H27.8884V34.3608Z" fill="white"/>
<path d="M27.8884 40.0823H20.4008V44.148H27.8884V40.0823Z" fill="white"/>
<path d="M27.8884 45.8035H20.4008V49.8692H27.8884V45.8035Z" fill="white"/>
<path d="M37.7468 34.3608H30.2592V38.4266H37.7468V34.3608Z" fill="white"/>
<path d="M37.7468 40.0823H30.2592V44.148H37.7468V40.0823Z" fill="white"/>
<path d="M37.7468 45.8035H30.2592V49.8692H37.7468V45.8035Z" fill="white"/>
<path d="M48.2065 34.3608H40.7189V38.4266H48.2065V34.3608Z" fill="white"/>
<path d="M48.2065 40.0823H40.7189V44.148H48.2065V40.0823Z" fill="white"/>
<path d="M48.2065 45.8035H40.7189V49.8692H48.2065V45.8035Z" fill="white"/>
<path d="M58.0538 34.3608H50.5662V38.4266H58.0538V34.3608Z" fill="white"/>
<path d="M48.2065 28.8259H40.7189V32.8917H48.2065V28.8259Z" fill="white"/>
<path d="M58.0538 28.8259H50.5662V32.8917H58.0538V28.8259Z" fill="white"/>
<path d="M58.0538 40.0823H50.5662V44.148H58.0538V40.0823Z" fill="white"/>
<rect x="14.2217" y="19.0464" width="50.6601" height="2.41239" rx="1.20619" fill="white"/>
</g>
<g clip-path="url(#clip1)">
<path d="M69.1035 98.8069C69.1035 96.6145 67.3226 94.8354 65.1122 94.8354H13.9981C11.7832 94.8354 10 96.6145 10 98.8069V104.764H69.1035V98.8069Z" fill="#176FA7"/>
<path d="M9.99988 104.764V136.706C9.99988 138.901 11.7831 140.671 13.998 140.671H65.1121C67.3202 140.671 69.1034 138.901 69.1034 136.706V104.764H9.99988Z" fill="#176FA7"/>
<path d="M22.4936 107.662C22.4936 108.983 21.4088 110.061 20.0731 110.061C18.7419 110.061 17.6593 108.98 17.6593 107.662V102.201C17.6593 100.871 18.7396 99.7976 20.0731 99.7976C21.4088 99.7976 22.4936 100.871 22.4936 102.201V107.662Z" fill="white"/>
<path d="M60.3636 107.662C60.3636 108.983 59.2855 110.061 57.952 110.061C56.6186 110.061 55.5405 108.98 55.5405 107.662V102.201C55.5405 100.871 56.6186 99.7976 57.952 99.7976C59.2832 99.7976 60.3636 100.871 60.3636 102.201V107.662Z" fill="white"/>
<path d="M27.8884 119.196H20.4008V123.262H27.8884V119.196Z" fill="white"/>
<path d="M27.8884 124.918H20.4008V128.983H27.8884V124.918Z" fill="white"/>
<path d="M27.8884 130.639H20.4008V134.705H27.8884V130.639Z" fill="white"/>
<path d="M37.7468 119.196H30.2592V123.262H37.7468V119.196Z" fill="white"/>
<path d="M37.7468 124.918H30.2592V128.983H37.7468V124.918Z" fill="white"/>
<path d="M37.7468 130.639H30.2592V134.705H37.7468V130.639Z" fill="white"/>
<path d="M48.2065 119.196H40.7189V123.262H48.2065V119.196Z" fill="white"/>
<path d="M48.2065 124.918H40.7189V128.983H48.2065V124.918Z" fill="white"/>
<path d="M48.2065 130.639H40.7189V134.705H48.2065V130.639Z" fill="white"/>
<path d="M58.0538 119.196H50.5662V123.262H58.0538V119.196Z" fill="white"/>
<path d="M48.2065 113.661H40.7189V117.727H48.2065V113.661Z" fill="white"/>
<path d="M58.0538 113.661H50.5662V117.727H58.0538V113.661Z" fill="white"/>
<path d="M58.0538 124.918H50.5662V128.983H58.0538V124.918Z" fill="white"/>
<rect x="14.2217" y="103.882" width="50.6601" height="2.41239" rx="1.20619" fill="white"/>
</g>
<defs>
<clipPath id="clip0">
<rect width="59.1035" height="45.8354" fill="white" transform="translate(10 10)"/>
</clipPath>
<clipPath id="clip1">
<rect width="59.1035" height="45.8354" fill="white" transform="translate(10 94.8354)"/>
</clipPath>
</defs>
</svg>
