<svg width="49" height="32" viewBox="0 0 49 32" fill="none" xmlns="http://www.w3.org/2000/svg">
<g clip-path="url(#clip0)">
<path d="M48.5407 8.35094C48.069 7.01885 47.2544 6.05712 46.2499 5.64495C44.884 5.08344 42.2503 4.86242 39.3777 9.18126C38.5875 8.5182 37.5708 7.8193 36.2294 6.89341C34.79 5.90181 32.9954 4.6653 30.7169 2.95091C28.567 1.33806 26.6193 0 24.5 0C24.4878 0 24.4755 0 24.4633 0C22.3563 0.011947 20.4147 1.34404 18.277 2.95091C15.9985 4.6653 14.2039 5.90181 12.7645 6.89341C11.4232 7.8193 10.4064 8.52417 9.61628 9.18126C6.74978 4.86242 4.11603 5.08344 2.75016 5.64495C1.74566 6.05712 0.931034 7.01885 0.459409 8.35094C-0.404216 10.7941 -0.0305909 14.0138 1.41491 16.5525C3.49128 20.1904 6.49866 21.3194 8.74041 21.6061C8.78941 21.6898 8.83841 21.7734 8.89353 21.857C12.5869 27.5796 20.2922 32 24.4694 32C24.4878 32 24.5062 32 24.5245 32C28.7079 31.994 36.407 27.5796 40.0943 21.857C40.1494 21.7734 40.1984 21.6898 40.2474 21.6061C42.4953 21.3194 45.5027 20.1904 47.5729 16.5525C49.0307 14.0198 49.4043 10.8001 48.5407 8.35094ZM7.72366 11.4392C6.56603 13.7689 6.48028 16.3315 7.44191 18.9718C5.78816 18.3745 4.45291 17.1977 3.45453 15.4475C2.16216 13.1775 2.12541 10.6209 2.66441 9.09763C2.90941 8.4047 3.28303 7.89696 3.65666 7.74165C4.87553 7.24585 6.44966 8.41068 7.99928 10.9494C7.90128 11.1047 7.80941 11.266 7.72366 11.4392ZM18.6445 6.21841C19.1284 5.91973 19.6062 5.58522 20.0655 5.26862C21.5294 4.25313 22.9075 3.29737 24.4939 3.29737C26.0864 3.29737 27.4707 4.2591 28.9284 5.26862C29.3878 5.58522 29.8655 5.91973 30.3494 6.21841C30.8945 6.55292 31.0538 7.25779 30.7108 7.78943C30.4903 8.12992 30.1105 8.3151 29.7247 8.3151C29.5103 8.3151 29.2959 8.25537 29.0999 8.1359C28.5609 7.80138 28.0587 7.45492 27.5748 7.1204C26.4233 6.32593 25.3392 5.57327 24.4939 5.5673C23.6487 5.5673 22.5645 6.31996 21.413 7.1204C20.9292 7.45492 20.4269 7.80736 19.8879 8.1359C19.3428 8.47041 18.62 8.3151 18.277 7.78346C17.9402 7.25779 18.0994 6.55292 18.6445 6.21841ZM33.7855 24.5391C30.5822 26.0922 27.1093 27.0599 24.7083 27.0599C24.6899 27.0599 24.6777 27.0599 24.6593 27.0599C22.1787 27.0599 18.4669 25.9966 15.1962 24.348C14.6265 24.0612 14.3999 23.3743 14.6939 22.8128C14.9879 22.2572 15.6923 22.0362 16.268 22.3229C19.1835 23.7924 22.5523 24.778 24.6593 24.778C24.6715 24.778 24.6838 24.778 24.696 24.778C26.7357 24.778 29.8839 23.882 32.7443 22.4962C33.32 22.2154 34.0244 22.4484 34.3062 23.0099C34.594 23.5774 34.3613 24.2584 33.7855 24.5391ZM36.3642 20.1546C32.3094 21.4628 27.7647 22.305 24.7757 22.305C24.7573 22.305 24.7328 22.305 24.7144 22.305C21.56 22.305 16.8193 21.3971 12.6237 19.9933C12.0173 19.7902 11.6927 19.1391 11.9009 18.5477C12.1092 17.9503 12.7707 17.6338 13.3832 17.8428C17.297 19.157 21.8418 20.0351 24.7144 20.0351C24.7328 20.0351 24.7512 20.0351 24.7695 20.0351C27.5442 20.0351 31.7949 19.2406 35.6353 18.0041C36.2478 17.807 36.9093 18.1296 37.1114 18.7269C37.3074 19.3183 36.9767 19.9574 36.3642 20.1546ZM45.5455 15.4475C44.5472 17.1977 43.2119 18.3745 41.5582 18.9718C42.5198 16.3375 42.434 13.7749 41.2764 11.4392C41.1907 11.266 41.0927 11.1107 40.9947 10.9494C42.5504 8.41068 44.1184 7.24585 45.3373 7.74165C45.717 7.89696 46.0845 8.4047 46.3295 9.09763C46.8747 10.6209 46.8379 13.1775 45.5455 15.4475Z" fill="#EE6A6A"/>
</g>
<defs>
<clipPath id="clip0">
<rect width="49" height="32" fill="white"/>
</clipPath>
</defs>
</svg>
