<svg width="47" height="37" viewBox="0 0 47 37" fill="none" xmlns="http://www.w3.org/2000/svg">
<g clip-path="url(#clip0)">
<path d="M16.0122 11.9862H4.89795V14.391H16.0122V11.9862Z" fill="#E28B8B"/>
<path d="M44.3816 7.25229V24.0102C45.8133 24.0102 47 22.8173 47 21.3782V9.88432C47 8.44523 45.8321 7.25229 44.3816 7.25229Z" fill="#E28B8B"/>
<path d="M42.7615 1.02276C42.4413 0.208532 41.5182 -0.208049 40.7082 0.113854L19.4782 8.50229C18.6493 7.78274 17.5567 7.34722 16.3699 7.34722H4.82244C3.48497 7.34722 2.27936 7.89635 1.41283 8.76738C0.546293 9.65735 0 10.8692 0 12.2136V18.9926C0 20.337 0.546293 21.5489 1.41283 22.4199C2.24168 23.2531 3.39078 23.8022 4.65291 23.8401L10.4172 35.9398C10.6433 36.5458 11.2273 36.9813 11.9242 36.9813H18.9507C19.1768 36.9813 19.4216 36.9245 19.6289 36.8298C20.42 36.4511 20.7591 35.5043 20.3824 34.709L15.2208 23.859H16.3699C17.3872 23.859 18.3479 23.5371 19.1202 22.988L40.5952 31.49C40.8024 31.5847 41.0285 31.6415 41.2733 31.6415C42.1587 31.6415 42.8745 30.9219 42.8745 30.032V1.60976C42.8745 1.40147 42.8369 1.21211 42.7615 1.02276ZM16.4265 33.8001H15.089L11.717 27.0591L12.4894 25.5253L16.4265 33.8001ZM18.0088 12.1758V12.1947V18.9736V18.9926V19.0115C17.99 19.5038 17.8016 19.8825 17.519 20.1666C17.5002 20.1855 17.4814 20.2044 17.4625 20.2234C17.1611 20.4885 16.7844 20.6589 16.3699 20.6589H12.6966H5.6513H4.82244C4.37034 20.6589 3.95591 20.4695 3.67335 20.1666C3.37194 19.8636 3.18357 19.447 3.18357 19.0115V12.2136C3.18357 11.7592 3.37194 11.3426 3.65451 11.0396C3.95591 10.7367 4.37034 10.5473 4.80361 10.5473H16.3323C16.7844 10.5473 17.1988 10.7367 17.5002 11.0207C17.8204 11.3237 17.99 11.7213 18.0088 12.1758ZM39.691 27.665L21.0228 20.2802C21.117 19.9393 21.1735 19.5985 21.1924 19.2387V19.2198V19.2009V19.1819V19.163V19.144V19.1062V19.0872V19.0683V19.0494V19.0304V19.0115V12.2136V12.1947V12.1758V12.1568V12.119V12.1V12.0811V12.0622V12.0054C21.1735 11.7781 21.1547 11.532 21.117 11.3237L39.691 3.9767V27.665Z" fill="#E28B8B"/>
<path d="M38.3157 7.40378L22.5486 12.7815V14.9022L38.3157 12.1377V7.40378Z" fill="#E28B8B"/>
</g>
<defs>
<clipPath id="clip0">
<rect width="47" height="37" fill="white"/>
</clipPath>
</defs>
</svg>
