<svg width="25" height="29" viewBox="0 0 25 29" fill="none" xmlns="http://www.w3.org/2000/svg">
<g clip-path="url(#clip0)">
<path d="M2.17632 28.4429C1.35095 28.4429 0.675049 27.757 0.675049 26.9127V2.29146C0.675049 1.45382 1.35095 0.767883 2.17632 0.767883C3.0082 0.767883 3.6776 1.45382 3.6776 2.29146V26.9127C3.6841 27.757 3.0082 28.4429 2.17632 28.4429Z" fill="#176FA7"/>
<path d="M23.5256 17.3162C16.4677 13.9326 9.40971 21.6495 2.35827 18.2659C1.87734 18.0351 1.4939 17.3228 1.4939 16.7358C1.4939 12.231 1.4939 7.72621 1.4939 3.22143C1.4939 2.63442 1.88384 2.41017 2.35827 2.64102C3.32662 3.10271 4.36647 3.38632 5.43231 3.47866C6.46565 3.57099 7.499 3.49185 8.51935 3.32036C9.56569 3.14228 10.5925 2.87186 11.6064 2.56847C12.6397 2.26507 13.6601 1.93529 14.6934 1.63849C15.7073 1.34829 16.7341 1.09106 17.7805 0.945955C18.8008 0.800853 19.8407 0.761279 20.8675 0.899786C21.3939 0.972338 21.9073 1.08446 22.4143 1.24935C22.8887 1.40105 23.4021 1.54615 23.7921 1.88253C24.351 2.35741 24.6044 3.261 24.1365 3.88758C23.2916 5.02862 22.5183 6.20922 21.7839 7.436C21.7644 7.47558 21.7384 7.50855 21.7189 7.54813C21.5824 7.77238 21.4524 7.99663 21.3224 8.22747C21.1405 8.54406 21.1405 8.98596 21.3224 9.36191C22.3038 11.4197 23.2786 13.6424 24.26 16.096C24.6239 17.0194 24.208 17.6525 23.5256 17.3162Z" fill="#176FA7"/>
</g>
<defs>
<clipPath id="clip0">
<rect width="23.7215" height="27.675" fill="white" transform="translate(0.675049 0.767883)"/>
</clipPath>
</defs>
</svg>
