<svg width="76" height="151" viewBox="0 0 76 151" fill="none" xmlns="http://www.w3.org/2000/svg">
<g clip-path="url(#clip0)">
<path d="M41.496 46.7493C41.8754 46.5601 64.625 34.5919 64.625 34.5919C65.406 34.18 65.7072 33.2114 65.2944 32.4321C64.8816 31.6527 63.9109 31.3521 63.1299 31.7641L40.4584 43.6766L15.3769 38.2881C13.893 37.9653 12.9558 36.5179 13.2682 35.0372C13.5918 33.5565 15.0422 32.6213 16.5261 32.9331L40.0233 37.943C40.715 38.0655 41.1725 38.0098 41.6968 37.7315C42.2212 37.4531 64.625 25.6965 64.625 25.6965C65.406 25.2845 65.7072 24.316 65.2944 23.5366C64.8816 22.7573 63.9109 22.4567 63.1299 22.8686L40.4807 34.77L15.3769 29.4038C13.893 29.081 12.9558 27.6337 13.2682 26.1529C13.5918 24.6722 15.0422 23.737 16.5261 24.0488L39.1753 28.8249C39.9005 28.9474 40.2018 28.747 40.4249 28.6134C41.496 28.1012 63.2192 16.7343 63.2192 16.7343C64.7812 15.9215 64.6473 14.9863 62.9179 14.6523L40.4026 10.1211C38.6732 9.78714 35.962 10.1434 34.3889 10.9227C34.3889 10.9227 13.2571 21.3991 13.0897 21.5327C11.6281 22.3343 10.5124 23.737 10.133 25.4849C9.66442 27.6448 10.4566 29.7824 11.9963 31.1629C11.0814 31.9756 10.412 33.0667 10.133 34.347C9.66442 36.5402 10.4677 38.7001 12.0521 40.0694C11.1149 40.8822 10.412 41.9955 10.133 43.2981C9.44128 46.5044 11.4942 49.6551 14.7075 50.3454C14.7075 50.3454 39.4431 55.667 40.079 55.7784C40.7262 55.8786 41.1055 55.8563 41.6187 55.578C42.132 55.2996 64.625 43.4873 64.625 43.4873C65.406 43.0754 65.7072 42.1068 65.2944 41.3275C64.8816 40.5482 63.9109 40.2476 63.1299 40.6595L40.4584 52.5831L15.3769 47.2058C13.893 46.8829 12.9558 45.4356 13.2682 43.9549C13.5918 42.4742 15.0422 41.539 16.5261 41.8507L27.2259 44.1442C27.2259 44.133 39.8894 46.8496 40.2241 46.9052C40.7931 46.9943 41.1278 46.9386 41.496 46.7493ZM39.5658 15.4985L45.2002 16.6341C46.6841 16.9347 46.9296 18.9386 45.5572 19.5844C45.256 19.7291 44.9101 19.7736 44.5754 19.7068L38.941 18.5712C37.4571 18.2706 37.2116 16.2667 38.584 15.6209C38.8852 15.4762 39.2311 15.4317 39.5658 15.4985Z" fill="#8BC0E2"/>
</g>
<g clip-path="url(#clip1)">
<path d="M41.496 131.585C41.8754 131.396 64.625 119.427 64.625 119.427C65.406 119.015 65.7072 118.047 65.2944 117.268C64.8816 116.488 63.9109 116.188 63.1299 116.6L40.4584 128.512L15.3769 123.124C13.893 122.801 12.9558 121.353 13.2682 119.873C13.5918 118.392 15.0422 117.457 16.5261 117.769L40.0233 122.778C40.715 122.901 41.1725 122.845 41.6968 122.567C42.2212 122.289 64.625 110.532 64.625 110.532C65.406 110.12 65.7072 109.151 65.2944 108.372C64.8816 107.593 63.9109 107.292 63.1299 107.704L40.4807 119.605L15.3769 114.239C13.893 113.916 12.9558 112.469 13.2682 110.988C13.5918 109.508 15.0422 108.572 16.5261 108.884L39.1753 113.66C39.9005 113.783 40.2018 113.582 40.4249 113.449C41.496 112.937 63.2192 101.57 63.2192 101.57C64.7812 100.757 64.6473 99.8218 62.9179 99.4878L40.4026 94.9566C38.6732 94.6226 35.962 94.9789 34.3889 95.7582C34.3889 95.7582 13.2571 106.235 13.0897 106.368C11.6281 107.17 10.5124 108.572 10.133 110.32C9.66442 112.48 10.4566 114.618 11.9963 115.998C11.0814 116.811 10.412 117.902 10.133 119.182C9.66442 121.376 10.4677 123.535 12.0521 124.905C11.1149 125.718 10.412 126.831 10.133 128.134C9.44128 131.34 11.4942 134.491 14.7075 135.181C14.7075 135.181 39.4431 140.502 40.079 140.614C40.7262 140.714 41.1055 140.692 41.6187 140.413C42.132 140.135 64.625 128.323 64.625 128.323C65.406 127.911 65.7072 126.942 65.2944 126.163C64.8816 125.384 63.9109 125.083 63.1299 125.495L40.4584 137.419L15.3769 132.041C13.893 131.718 12.9558 130.271 13.2682 128.79C13.5918 127.31 15.0422 126.374 16.5261 126.686L27.2259 128.98C27.2259 128.968 39.8894 131.685 40.2241 131.741C40.7931 131.83 41.1278 131.774 41.496 131.585ZM39.5658 100.334L45.2002 101.47C46.6841 101.77 46.9296 103.774 45.5572 104.42C45.256 104.565 44.9101 104.609 44.5754 104.542L38.941 103.407C37.4571 103.106 37.2116 101.102 38.584 100.456C38.8852 100.312 39.2311 100.267 39.5658 100.334Z" fill="#176FA7"/>
</g>
<defs>
<clipPath id="clip0">
<rect width="55.4849" height="45.8354" fill="white" transform="translate(10 10)"/>
</clipPath>
<clipPath id="clip1">
<rect width="55.4849" height="45.8354" fill="white" transform="translate(10 94.8354)"/>
</clipPath>
</defs>
</svg>
