<svg width="101" height="231" viewBox="0 0 101 231" fill="none" xmlns="http://www.w3.org/2000/svg">
<g clip-path="url(#clip0)">
<path d="M47.0703 4.28188C49.4668 1.90996 53.3263 1.90996 55.7228 4.28188L96.6902 44.8291C100.595 48.6941 97.8584 55.3502 92.364 55.3502H10.4291C4.93472 55.3502 2.19778 48.6942 6.10287 44.8291L47.0703 4.28188Z" fill="#8BC0E2"/>
<path fill-rule="evenodd" clip-rule="evenodd" d="M85.0589 55.0861C85.0589 51.6895 82.3055 48.936 78.9089 48.936H23.2003C19.8038 48.936 17.0503 51.6895 17.0503 55.0861V91.3719C17.0503 94.7685 19.8038 97.522 23.2003 97.522H29.4484C32.845 97.522 35.5984 94.7685 35.5984 91.3719V80.8079C35.5984 77.4113 38.3519 74.6578 41.7484 74.6578H60.3614C63.758 74.6578 66.5114 77.4113 66.5114 80.8079V91.3719C66.5114 94.7685 69.2649 97.522 72.6614 97.522H78.9089C82.3055 97.522 85.0589 94.7685 85.0589 91.3719V55.0861Z" fill="#8BC0E2"/>
<rect x="47.564" y="12.5112" width="10.4067" height="40.2084" rx="5.20337" transform="rotate(45.2946 47.564 12.5112)" fill="white"/>
</g>
<g clip-path="url(#clip1)">
<path d="M47.0703 134.282C49.4668 131.91 53.3263 131.91 55.7228 134.282L96.6902 174.829C100.595 178.694 97.8584 185.35 92.364 185.35H10.4291C4.93472 185.35 2.19778 178.694 6.10287 174.829L47.0703 134.282Z" fill="#176FA7"/>
<path fill-rule="evenodd" clip-rule="evenodd" d="M85.0589 185.086C85.0589 181.689 82.3055 178.936 78.9089 178.936H23.2003C19.8038 178.936 17.0503 181.689 17.0503 185.086V221.372C17.0503 224.768 19.8038 227.522 23.2003 227.522H29.4484C32.845 227.522 35.5984 224.768 35.5984 221.372V210.808C35.5984 207.411 38.3519 204.658 41.7484 204.658H60.3614C63.758 204.658 66.5114 207.411 66.5114 210.808V221.372C66.5114 224.768 69.2649 227.522 72.6614 227.522H78.9089C82.3055 227.522 85.0589 224.768 85.0589 221.372V185.086Z" fill="#176FA7"/>
<rect x="47.564" y="142.511" width="10.4067" height="40.2084" rx="5.20337" transform="rotate(45.2946 47.564 142.511)" fill="white"/>
</g>
<defs>
<clipPath id="clip0">
<rect width="100.158" height="100.158" fill="white"/>
</clipPath>
<clipPath id="clip1">
<rect width="100.158" height="100.158" fill="white" transform="translate(0 130)"/>
</clipPath>
</defs>
</svg>
