<svg width="34" height="34" viewBox="0 0 34 34" fill="none" xmlns="http://www.w3.org/2000/svg">
<g clip-path="url(#clip0)">
<path d="M17.0016 34.0033C26.3914 34.0033 34.0033 26.3914 34.0033 17.0016C34.0033 7.61189 26.3914 0 17.0016 0C7.61189 0 0 7.61189 0 17.0016C0 26.3914 7.61189 34.0033 17.0016 34.0033Z" fill="#176FA7"/>
<path d="M7.2085 8.09943C9.62658 5.43334 13.1183 3.75928 16.9983 3.75928C20.8816 3.75928 24.37 5.43334 26.7881 8.09943" stroke="white" stroke-width="1.5" stroke-miterlimit="10" stroke-linecap="round" stroke-linejoin="round"/>
<path d="M7.2085 26.3803C9.62658 29.0464 13.1183 30.7204 16.9983 30.7204C20.8816 30.7204 24.37 29.0464 26.7881 26.3803" stroke="white" stroke-width="1.5" stroke-miterlimit="10" stroke-linecap="round" stroke-linejoin="round"/>
<path d="M3.63843 12.5962H9.55147V14.5248H6.06304V16.0585H8.63776V17.9023H6.06304V21.3157H3.63843V12.5962Z" fill="white"/>
<path d="M13.004 21.3189H10.5793V14.378H13.004V15.6017C13.5228 14.8479 14.3158 14.316 15.2426 14.316V16.9005H14.5605C13.5587 16.9005 13.0007 17.2235 13.0007 18.2874V21.3189H13.004Z" fill="white"/>
<path d="M19.2402 21.4038C17.1876 21.4038 15.7126 20.0561 15.7126 17.8403C15.7126 15.6376 17.1615 14.2899 19.2402 14.2899C21.2928 14.2899 22.7417 15.6147 22.7417 17.7652C22.7417 17.9512 22.7287 18.1503 22.7058 18.333H18.1144C18.1634 19.1358 18.5974 19.4589 19.1423 19.4589C19.6123 19.4589 19.8733 19.1978 20.0071 18.9139H22.5916C22.2718 20.34 20.973 21.4038 19.2402 21.4038ZM18.1275 17.1615H20.2682C20.2682 16.5415 19.7852 16.2087 19.2305 16.2087C18.6463 16.2087 18.2384 16.5285 18.1275 17.1615Z" fill="white"/>
<path d="M26.8599 21.4038C24.8073 21.4038 23.3323 20.0561 23.3323 17.8403C23.3323 15.6376 24.7812 14.2899 26.8599 14.2899C28.9125 14.2899 30.3614 15.6147 30.3614 17.7652C30.3614 17.9512 30.3483 18.1503 30.3255 18.333H25.734C25.783 19.1358 26.217 19.4589 26.762 19.4589C27.2319 19.4589 27.4929 19.1978 27.6267 18.9139H30.2112C29.8914 20.34 28.5927 21.4038 26.8599 21.4038ZM25.7471 17.1615H27.8878C27.8878 16.5415 27.4048 16.2087 26.8501 16.2087C26.266 16.2087 25.858 16.5285 25.7471 17.1615Z" fill="white"/>
</g>
<defs>
<clipPath id="clip0">
<rect width="34" height="34" fill="white"/>
</clipPath>
</defs>
</svg>
