<svg width="33" height="33" viewBox="0 0 33 33" fill="none" xmlns="http://www.w3.org/2000/svg">
<path d="M17.7917 15.5878C18.1417 15.9977 18.1059 16.6028 17.7119 16.9391C17.3178 17.2756 16.7146 17.216 16.3648 16.8062L10.929 10.4403C10.579 10.0305 10.6148 9.42545 11.0088 9.08896C11.4029 8.75247 12.0061 8.81207 12.3561 9.22185L17.7917 15.5878Z" fill="white"/>
<path d="M11.7198 20.2979C11.3831 20.5853 11.3831 21.1376 11.7196 21.5318C12.0561 21.9259 12.6018 22.0123 12.9383 21.7249L18.1665 17.2608C18.503 16.9733 18.5032 16.421 18.1667 16.027C17.8302 15.6329 17.2846 15.5465 16.9481 15.8339L11.7198 20.2979Z" fill="white"/>
<path d="M7.37528 16.4105H4.99854V17.393H7.37528V16.4105Z" fill="white"/>
<path d="M27.9322 16.4105H25.5554V17.393H27.9322V16.4105Z" fill="white"/>
<path d="M17.1234 4.83911H16.1411V7.21563H17.1234V4.83911Z" fill="white"/>
<path d="M17.0208 25.7288H16.0386V28.1055H17.0208V25.7288Z" fill="white"/>
<path d="M16.4999 33C7.40178 33 0 25.5978 0 16.4994C0 7.40165 7.40178 0 16.4999 0C18.3005 0 20.0718 0.289847 21.7648 0.861398C23.2731 1.37057 24.6961 2.09501 26.0002 3.01674L27.461 1.37353C27.5452 1.27877 27.6661 1.22435 27.793 1.22435C27.8286 1.22435 27.8643 1.22861 27.8989 1.23713C28.0601 1.27692 28.1845 1.4013 28.2243 1.56177L29.944 8.51162C29.9806 8.65988 29.9395 8.81424 29.8344 8.92474C29.7511 9.01228 29.6338 9.06244 29.5127 9.06244C29.4851 9.06244 29.4574 9.05985 29.4302 9.05467C29.429 9.05448 22.7058 7.73018 22.7058 7.73018C22.5498 7.69946 22.4215 7.58692 22.3708 7.43626C22.3201 7.28542 22.3541 7.1181 22.4595 6.99946L23.6888 5.61648C21.5523 4.19908 19.0767 3.45225 16.4997 3.45225C9.30543 3.45225 3.45231 9.30491 3.45231 16.4989C3.45231 23.6938 9.30543 29.5472 16.4997 29.5472C23.6942 29.5472 29.5475 23.6938 29.5475 16.4989C29.5475 14.9969 29.2928 13.5231 28.7905 12.1184C28.7148 11.9067 28.8094 11.6714 29.0107 11.5713L31.3192 10.4212C31.3806 10.3906 31.4489 10.3745 31.5172 10.3745C31.573 10.3745 31.6274 10.3849 31.6792 10.4051C31.7954 10.4504 31.8882 10.5439 31.9326 10.6612C32.6407 12.5265 32.9998 14.4907 32.9998 16.4989C33 25.5978 25.598 33 16.4999 33Z" fill="white"/>
<path d="M16.4999 32.5929C7.62632 32.5929 0.407227 25.3733 0.407227 16.4995C0.407227 7.62623 7.62632 0.407257 16.4999 0.407257C18.2561 0.407257 19.9837 0.689886 21.6347 1.24737C23.22 1.78264 24.7087 2.56149 26.0601 3.56281L27.7655 1.64438C27.7725 1.63642 27.7827 1.63198 27.7931 1.63198C27.796 1.63198 27.799 1.63235 27.8019 1.63309C27.8153 1.63642 27.8256 1.64679 27.829 1.66011L29.5486 8.60997C29.5516 8.62218 29.5483 8.63532 29.5396 8.64439C29.5325 8.6518 29.5227 8.65587 29.5127 8.65587C29.5103 8.65587 29.5079 8.65568 29.5055 8.65513L22.7845 7.33138C22.7715 7.32879 22.7608 7.31954 22.7566 7.30695C22.7523 7.29436 22.7551 7.28048 22.764 7.27049L24.2995 5.54325C22.0106 3.90911 19.3148 3.04587 16.4999 3.04587C9.08095 3.04587 3.04532 9.0812 3.04532 16.4997C3.04532 23.9191 9.08113 29.9552 16.4999 29.9552C23.9191 29.9552 29.9549 23.9191 29.9549 16.4997C29.9549 14.9509 29.6923 13.4309 29.1742 11.9823C29.1679 11.9647 29.1757 11.9451 29.1925 11.9367L31.5012 10.7866C31.5064 10.784 31.5121 10.7827 31.5176 10.7827C31.5223 10.7827 31.5267 10.7836 31.5312 10.7853C31.541 10.7892 31.5485 10.7968 31.5523 10.8066C32.2428 12.6258 32.593 14.5413 32.593 16.4999C32.5928 25.3733 25.3736 32.5929 16.4999 32.5929Z" fill="white"/>
</svg>
