<svg width="34" height="34" viewBox="0 0 34 34" fill="none" xmlns="http://www.w3.org/2000/svg">
<path d="M18.3309 16.0601C18.6915 16.4825 18.6547 17.1059 18.2487 17.4524C17.8427 17.7991 17.2212 17.7377 16.8608 17.3155L11.2603 10.7566C10.8997 10.3344 10.9365 9.71105 11.3425 9.36437C11.7485 9.01768 12.37 9.07908 12.7306 9.50129L18.3309 16.0601Z" fill="#176FA7"/>
<path d="M12.0751 20.913C11.7282 21.2091 11.7282 21.7782 12.0749 22.1844C12.4216 22.5903 12.9838 22.6794 13.3305 22.3833L18.7172 17.7838C19.0639 17.4877 19.0641 16.9187 18.7174 16.5127C18.3707 16.1067 17.8085 16.0176 17.4618 16.3138L12.0751 20.913Z" fill="#176FA7"/>
<path d="M7.59892 16.9078H5.15015V17.9201H7.59892V16.9078Z" fill="#176FA7"/>
<path d="M28.7786 16.9078H26.3298V17.9201H28.7786V16.9078Z" fill="#176FA7"/>
<path d="M17.6422 4.98578H16.6301V7.43432H17.6422V4.98578Z" fill="#176FA7"/>
<path d="M17.5366 26.5084H16.5245V28.9572H17.5366V26.5084Z" fill="#176FA7"/>
<path d="M16.9999 34C7.62607 34 0 26.3735 0 16.9994C0 7.62594 7.62607 0 16.9999 0C18.855 0 20.68 0.29863 22.4244 0.8875C23.9784 1.41211 25.4445 2.15849 26.7881 3.10816L28.2931 1.41516C28.3799 1.31752 28.5044 1.26146 28.6352 1.26146C28.6719 1.26146 28.7087 1.26584 28.7443 1.27461C28.9104 1.31561 29.0386 1.44376 29.0796 1.6091L30.8514 8.76955C30.8891 8.9223 30.8468 9.08134 30.7385 9.19518C30.6527 9.28538 30.5318 9.33706 30.407 9.33706C30.3786 9.33706 30.35 9.33439 30.322 9.32905C30.3208 9.32886 23.3939 7.96443 23.3939 7.96443C23.2331 7.93277 23.101 7.81683 23.0487 7.6616C22.9965 7.50619 23.0315 7.3338 23.14 7.21156L24.4067 5.78668C22.2054 4.32633 19.6548 3.55687 16.9997 3.55687C9.58742 3.55687 3.55693 9.58687 3.55693 16.9989C3.55693 24.4118 9.58742 30.4426 16.9997 30.4426C24.4122 30.4426 30.4429 24.4118 30.4429 16.9989C30.4429 15.4514 30.1805 13.9328 29.6629 12.4856C29.5849 12.2675 29.6824 12.0251 29.8899 11.9219L32.2683 10.737C32.3316 10.7055 32.4019 10.6889 32.4723 10.6889C32.5297 10.6889 32.5858 10.6996 32.6392 10.7204C32.7589 10.7671 32.8545 10.8634 32.9002 10.9843C33.6299 12.9061 33.9998 14.9298 33.9998 16.9989C34 26.3735 26.3737 34 16.9999 34Z" fill="#176FA7"/>
<path d="M16.9998 33.5806C7.85729 33.5806 0.419434 26.1423 0.419434 16.9995C0.419434 7.85734 7.85729 0.419617 16.9998 0.419617C18.8092 0.419617 20.5891 0.71081 22.2902 1.28519C23.9235 1.83668 25.4573 2.63913 26.8496 3.6708L28.6067 1.69423C28.614 1.68603 28.6245 1.68145 28.6351 1.68145C28.6382 1.68145 28.6412 1.68184 28.6443 1.6826C28.658 1.68603 28.6687 1.69671 28.6721 1.71044L30.4439 8.87089C30.447 8.88348 30.4435 8.89702 30.4346 8.90636C30.4273 8.91399 30.4172 8.91819 30.4069 8.91819C30.4044 8.91819 30.402 8.918 30.3995 8.91742L23.4748 7.55356C23.4615 7.55089 23.4504 7.54136 23.446 7.52839C23.4416 7.51542 23.4445 7.50112 23.4536 7.49083L25.0357 5.71125C22.6775 4.02759 19.9 3.13818 16.9998 3.13818C9.35599 3.13818 3.13747 9.35641 3.13747 16.9997C3.13747 24.644 9.35618 30.8629 16.9998 30.8629C24.6438 30.8629 30.8625 24.644 30.8625 16.9997C30.8625 15.404 30.5919 13.838 30.0581 12.3454C30.0517 12.3273 30.0597 12.307 30.077 12.2985L32.4556 11.1135C32.461 11.1108 32.4669 11.1095 32.4726 11.1095C32.4774 11.1095 32.4819 11.1104 32.4865 11.1121C32.4966 11.1162 32.5044 11.124 32.5082 11.1341C33.2197 13.0084 33.5806 14.9819 33.5806 16.9999C33.5804 26.1423 26.1423 33.5806 16.9998 33.5806Z" fill="#176FA7"/>
</svg>
