<svg width="51" height="32" viewBox="0 0 51 32" fill="none" xmlns="http://www.w3.org/2000/svg">
<path fill-rule="evenodd" clip-rule="evenodd" d="M32.407 17.1285L32.407 7.58136H23.1703L23.1703 17.1285L18.5518 17.1285L27.7882 28.585L37.0251 17.1285H32.407ZM43.1894 15.7275C43.2637 15.1614 43.3019 14.5849 43.3019 14C43.3019 6.26801 36.6242 0 28.3868 0C21.4143 0 15.5593 4.49082 13.9255 10.5591C12.8754 10.1964 11.7522 10 10.5849 10C4.73902 10 0 14.9249 0 21C0 27.0751 4.73902 32 10.5849 32C10.8622 32 11.137 31.9889 11.4089 31.9672C11.6513 31.9889 11.8968 32 12.1449 32H42.8601C47.3555 32 50.9997 28.3558 50.9997 23.8605C50.9997 19.4754 47.5321 15.9003 43.1894 15.7275Z" fill="white"/>
</svg>
