<svg width="36" height="33" viewBox="0 0 36 33" fill="none" xmlns="http://www.w3.org/2000/svg">
<g clip-path="url(#clip0)">
<path d="M13.2115 31.514H3.11828C1.40502 31.514 0 30.1142 0 28.3913V3.2519C0 1.24908 1.56989 0 3.73477 0H23.6989C24.1577 0 24.6021 0.366108 24.6021 0.825538C24.6021 1.28497 24.1577 1.65826 23.6989 1.65826C23.6989 1.65826 3.68459 1.65826 3.67025 1.65826C2.32258 1.65826 1.82796 2.67762 1.82796 3.2519C1.82796 3.82619 2.32258 4.91734 3.60573 4.91734C3.60573 4.91734 23.5914 4.90298 23.6057 4.91734C24.3513 4.93887 25.0251 5.58495 25.0251 6.33152C25.0323 6.3387 25.0251 15.1755 25.0251 15.1755C25.0251 15.1755 17.9928 22.1819 16.5878 23.7037C16.1147 24.2134 15.4194 25.0533 15.1111 25.8573C14.8244 26.6039 13.2115 31.514 13.2115 31.514ZM33.5125 19.2099L35.6129 17.0994C36.1362 16.5682 36.129 15.7068 35.6057 15.1755L32.4301 12.0098C31.8925 11.4858 31.0323 11.4858 30.509 12.017L28.3943 14.1418C28.4086 14.1203 33.5125 19.2099 33.5125 19.2099ZM17.8423 24.7518L26.7025 15.8432L31.7993 20.9256L22.9462 29.8342L17.8423 24.7518ZM16.4875 26.6326L21.0968 31.2269L15.2545 32.9569C14.8387 33.1005 14.6308 32.8205 14.7599 32.4616L16.4875 26.6326Z" fill="#8BC0E2"/>
</g>
<defs>
<clipPath id="clip0">
<rect width="36" height="33" fill="white"/>
</clipPath>
</defs>
</svg>
