<svg width="25" height="31" viewBox="0 0 25 31" fill="none" xmlns="http://www.w3.org/2000/svg">
<path d="M24.9966 6.23531C24.9895 5.50091 24.3236 4.85831 23.5789 4.84419C23.5717 4.83713 18.8531 4.83713 14.0056 4.83713C14.249 5.14784 14.4567 5.57859 14.4567 6.19294C14.4567 7.28041 14.4567 18.6706 14.4567 18.6706L10.2464 15.0128L6.03614 18.6706C6.03614 18.6706 6.03614 6.94852 6.03614 6.19294C6.03614 5.59271 5.81416 5.1549 5.56355 4.83713C4.35346 4.83713 3.59447 4.83713 3.59447 4.83713C2.31278 4.83713 1.81872 3.76378 1.81872 3.19886C1.81872 2.63394 2.31278 1.63121 3.65892 1.63121C3.67324 1.63121 23.6648 1.63121 23.6648 1.63121C24.1231 1.63121 24.567 1.27107 24.567 0.812073C24.567 0.360137 24.1231 0 23.6648 0H3.72336C1.56094 0 0 1.2287 0 3.19886V27.9282C0 29.6159 1.40342 31 3.11473 31H21.7888C23.5001 31 24.9751 29.6159 24.9751 27.9282C24.9751 27.9353 25.0109 6.24943 24.9966 6.23531Z" fill="#8BC0E2"/>
</svg>
