<svg width="42" height="44" viewBox="0 0 42 44" fill="none" xmlns="http://www.w3.org/2000/svg">
<path fill-rule="evenodd" clip-rule="evenodd" d="M20.7864 0.0741577C24.3738 0.0741577 27.2821 2.49054 27.2821 5.4713L36.5726 5.4713C39.3341 5.4713 41.5726 7.70988 41.5726 10.4713V38.2513C41.5726 41.0127 39.3341 43.2513 36.5726 43.2513H5C2.23858 43.2513 0 41.0127 0 38.2513V10.4713C0 7.70988 2.23858 5.4713 5 5.4713L14.2906 5.4713C14.2906 2.49054 17.1989 0.0741577 20.7864 0.0741577ZM10.3932 19.5039C10.3932 20.6962 9.22987 21.6627 7.79488 21.6627C6.35988 21.6627 5.19659 20.6962 5.19659 19.5039C5.19659 18.3116 6.35988 17.345 7.79488 17.345C9.22987 17.345 10.3932 18.3116 10.3932 19.5039ZM10.3931 25.9804C10.3931 27.1728 9.22982 28.1393 7.79483 28.1393C6.35983 28.1393 5.19654 27.1728 5.19654 25.9804C5.19654 24.7881 6.35983 23.8216 7.79483 23.8216C9.22982 23.8216 10.3931 24.7881 10.3931 25.9804ZM7.79483 34.6159C9.22982 34.6159 10.3931 33.6493 10.3931 32.457C10.3931 31.2647 9.22982 30.2982 7.79483 30.2982C6.35983 30.2982 5.19654 31.2647 5.19654 32.457C5.19654 33.6493 6.35983 34.6159 7.79483 34.6159ZM12.9914 19.4244C12.9914 18.8722 13.4392 18.4244 13.9914 18.4244H34.0769C34.6292 18.4244 35.0769 18.8722 35.0769 19.4244V20.6627C35.0769 21.215 34.6292 21.6627 34.0769 21.6627H13.9914C13.4392 21.6627 12.9914 21.215 12.9914 20.6627V19.4244ZM13.9914 24.901C13.4392 24.901 12.9914 25.3487 12.9914 25.901V27.1393C12.9914 27.6916 13.4392 28.1393 13.9914 28.1393H34.0769C34.6292 28.1393 35.0769 27.6916 35.0769 27.1393V25.901C35.0769 25.3487 34.6292 24.901 34.0769 24.901H13.9914ZM12.9914 32.3776C12.9914 31.8253 13.4392 31.3776 13.9914 31.3776H34.0769C34.6292 31.3776 35.0769 31.8253 35.0769 32.3776V33.6159C35.0769 34.1682 34.6292 34.6159 34.0769 34.6159H13.9914C13.4392 34.6159 12.9914 34.1682 12.9914 33.6159V32.3776ZM20.7863 7.63016C22.2213 7.63016 23.3846 6.6636 23.3846 5.4713C23.3846 4.279 22.2213 3.31244 20.7863 3.31244C19.3513 3.31244 18.188 4.279 18.188 5.4713C18.188 6.6636 19.3513 7.63016 20.7863 7.63016Z" fill="white"/>
</svg>
