<svg width="102" height="230" viewBox="0 0 102 230" fill="none" xmlns="http://www.w3.org/2000/svg">
<g clip-path="url(#clip0)">
<path fill-rule="evenodd" clip-rule="evenodd" d="M24.8063 41.312L42.9705 17.5721C44.2708 15.8694 46.7513 15.5171 48.4917 16.7892C49.2519 17.3372 49.752 18.1201 49.9521 18.942L66.3758 84.0165C66.8959 86.091 65.6156 88.1852 63.4952 88.694C62.4349 88.9484 61.3747 88.7723 60.5145 88.2634L33.9484 75.6791L17.7447 79.5934C14.5639 80.3566 11.3432 79.7891 8.74261 78.243C6.12201 76.6968 4.12155 74.1917 3.32137 71.0799L0.320681 59.2001C-0.459498 56.0883 0.120635 52.9373 1.701 50.3931C1.76101 50.2952 1.82102 50.1973 1.90104 50.0995C3.50141 47.6922 5.98198 45.833 9.02268 45.1088L24.8063 41.312ZM53.4929 26.3596L57.5738 25.381L70.2967 75.777L66.2158 76.7555L53.4929 26.3596ZM80.8991 9.7827C78.7587 8.37357 75.838 8.94114 74.3977 11.0353C72.9573 13.1294 73.5375 15.9868 75.678 17.3959C83.5798 22.5627 88.7009 31.2132 90.9414 40.4313C93.362 50.3931 92.4618 60.8441 88.1008 68.2029C86.8005 70.3949 87.5807 73.1936 89.8012 74.4461C92.0417 75.7183 94.9024 74.955 96.1827 72.7826C101.724 63.4275 102.964 50.4518 100.004 38.3176C97.2829 27.0054 90.8814 16.2999 80.8991 9.7827ZM74.0976 29.8432C78.0985 34.3446 80.5391 39.12 81.5993 44.0715C82.7396 49.3166 82.3195 54.6596 80.5391 59.9634C79.7389 62.3707 77.0983 63.6819 74.6377 62.8991C72.1772 62.1162 70.8368 59.5328 71.637 57.1256C72.8973 53.3092 73.2174 49.5515 72.4572 45.97C71.717 42.4863 69.9366 39.0809 67.036 35.8125C65.3556 33.9141 65.5556 31.0175 67.4961 29.3735C69.4565 27.7491 72.4172 27.9448 74.0976 29.8432ZM36.2089 49.1992L48.1116 34.5012C49.4719 32.8376 49.1719 30.4108 47.4715 29.0995C45.7711 27.7687 43.2905 28.0623 41.9502 29.7258L30.0475 44.4238C28.6872 46.0874 28.9873 48.5142 30.6876 49.8255C32.388 51.1563 34.8486 50.8628 36.2089 49.1992ZM29.3873 68.8488L24.4662 49.3362L10.9631 52.6046C9.96289 52.8395 9.1427 53.4462 8.60258 54.2095C8.56257 54.2682 8.54257 54.3269 8.50256 54.3856C7.94243 55.2663 7.74238 56.3231 8.00244 57.3604L11.0031 69.2402C11.2632 70.2775 11.9433 71.1386 12.8235 71.6474C13.7037 72.1759 14.784 72.3716 15.8642 72.0976L29.3873 68.8488Z" fill="#8CC1E2"/>
</g>
<g clip-path="url(#clip1)">
<path fill-rule="evenodd" clip-rule="evenodd" d="M24.8063 172.312L42.9705 148.572C44.2708 146.869 46.7513 146.517 48.4917 147.789C49.2519 148.337 49.752 149.12 49.9521 149.942L66.3758 215.016C66.8959 217.091 65.6156 219.185 63.4952 219.694C62.4349 219.948 61.3747 219.772 60.5145 219.263L33.9484 206.679L17.7447 210.593C14.5639 211.357 11.3432 210.789 8.74261 209.243C6.12201 207.697 4.12155 205.192 3.32137 202.08L0.320681 190.2C-0.459498 187.088 0.120635 183.937 1.701 181.393C1.76101 181.295 1.82102 181.197 1.90104 181.099C3.50141 178.692 5.98198 176.833 9.02268 176.109L24.8063 172.312ZM53.4929 157.36L57.5738 156.381L70.2967 206.777L66.2158 207.756L53.4929 157.36ZM80.8991 140.783C78.7587 139.374 75.838 139.941 74.3977 142.035C72.9573 144.129 73.5375 146.987 75.678 148.396C83.5798 153.563 88.7009 162.213 90.9414 171.431C93.362 181.393 92.4618 191.844 88.1008 199.203C86.8005 201.395 87.5807 204.194 89.8012 205.446C92.0417 206.718 94.9024 205.955 96.1827 203.783C101.724 194.428 102.964 181.452 100.004 169.318C97.2829 158.005 90.8814 147.3 80.8991 140.783ZM74.0976 160.843C78.0985 165.345 80.5391 170.12 81.5993 175.072C82.7396 180.317 82.3195 185.66 80.5391 190.963C79.7389 193.371 77.0983 194.682 74.6377 193.899C72.1772 193.116 70.8368 190.533 71.637 188.126C72.8973 184.309 73.2174 180.551 72.4572 176.97C71.717 173.486 69.9366 170.081 67.036 166.812C65.3556 164.914 65.5556 162.018 67.4961 160.374C69.4565 158.749 72.4172 158.945 74.0976 160.843ZM36.2089 180.199L48.1116 165.501C49.4719 163.838 49.1719 161.411 47.4715 160.1C45.7711 158.769 43.2905 159.062 41.9502 160.726L30.0475 175.424C28.6872 177.087 28.9873 179.514 30.6876 180.825C32.388 182.156 34.8486 181.863 36.2089 180.199ZM29.3873 199.849L24.4662 180.336L10.9631 183.605C9.96289 183.839 9.1427 184.446 8.60258 185.209C8.56257 185.268 8.54257 185.327 8.50256 185.386C7.94243 186.266 7.74238 187.323 8.00244 188.36L11.0031 200.24C11.2632 201.277 11.9433 202.139 12.8235 202.647C13.7037 203.176 14.784 203.372 15.8642 203.098L29.3873 199.849Z" fill="#176FA7"/>
</g>
<defs>
<clipPath id="clip0">
<rect width="101.603" height="79.8311" fill="white" transform="translate(0 9)"/>
</clipPath>
<clipPath id="clip1">
<rect width="101.603" height="79.8311" fill="white" transform="translate(0 140)"/>
</clipPath>
</defs>
</svg>
