<svg width="78" height="151" viewBox="0 0 78 151" fill="none" xmlns="http://www.w3.org/2000/svg">
<path fill-rule="evenodd" clip-rule="evenodd" d="M24.5575 29.134L34.7764 15.7782C35.5079 14.8203 36.9034 14.6221 37.8826 15.3378C38.3102 15.6461 38.5916 16.0865 38.7041 16.549L47.9439 53.1589C48.2365 54.326 47.5162 55.5041 46.3233 55.7904C45.7268 55.9335 45.1303 55.8344 44.6464 55.5482L29.7007 48.4684L20.5847 50.6705C18.7953 51.0999 16.9834 50.7806 15.5203 49.9108C14.046 49.0409 12.9206 47.6316 12.4704 45.8809L10.7822 39.1976C10.3433 37.4469 10.6697 35.6742 11.5588 34.2428C11.5926 34.1878 11.6263 34.1327 11.6713 34.0777C12.5717 32.7234 13.9672 31.6774 15.6779 31.27L24.5575 29.134ZM40.6961 20.7219L42.992 20.1714L50.1497 48.5235L47.8539 49.074L40.6961 20.7219ZM56.1145 11.396C54.9103 10.6033 53.2672 10.9226 52.4569 12.1007C51.6466 13.2788 51.9729 14.8864 53.1771 15.6791C57.6226 18.5859 60.5037 23.4525 61.7642 28.6385C63.1259 34.2428 62.6195 40.1224 60.1661 44.2624C59.4345 45.4956 59.8734 47.0701 61.1227 47.7747C62.3831 48.4904 63.9925 48.061 64.7128 46.8388C67.8302 41.5758 68.528 34.2759 66.8624 27.4494C65.3318 21.0853 61.7304 15.0625 56.1145 11.396ZM52.2881 22.6818C54.5389 25.2142 55.9119 27.9008 56.5084 30.6864C57.1499 33.6373 56.9136 36.6431 55.9119 39.627C55.4618 40.9813 53.9762 41.719 52.5919 41.2785C51.2076 40.8381 50.4536 39.3847 50.9038 38.0304C51.6128 35.8834 51.7929 33.7694 51.3652 31.7545C50.9488 29.7946 49.9472 27.8788 48.3153 26.04C47.3699 24.972 47.4825 23.3424 48.5741 22.4176C49.6771 21.5037 51.3427 21.6138 52.2881 22.6818ZM30.9724 33.5712L37.6687 25.3023C38.434 24.3664 38.2652 23.0011 37.3086 22.2634C36.352 21.5147 34.9565 21.6798 34.2024 22.6157L27.5061 30.8846C26.7408 31.8205 26.9096 33.1858 27.8663 33.9235C28.8229 34.6722 30.2071 34.5071 30.9724 33.5712ZM27.1347 44.6257L24.3662 33.6483L16.7695 35.487C16.2068 35.6191 15.7454 35.9605 15.4415 36.3899C15.419 36.4229 15.4078 36.4559 15.3853 36.489C15.0701 36.9844 14.9576 37.579 15.1039 38.1626L16.792 44.8459C16.9383 45.4295 17.321 45.914 17.8162 46.2002C18.3114 46.4975 18.9191 46.6076 19.5268 46.4535L27.1347 44.6257Z" fill="#8BC0E2"/>
<path fill-rule="evenodd" clip-rule="evenodd" d="M24.5575 114.029L34.7764 100.673C35.5079 99.7156 36.9034 99.5174 37.8826 100.233C38.3102 100.541 38.5916 100.982 38.7041 101.444L47.9439 138.054C48.2365 139.221 47.5162 140.399 46.3233 140.686C45.7268 140.829 45.1303 140.73 44.6464 140.443L29.7007 133.364L20.5847 135.566C18.7953 135.995 16.9834 135.676 15.5203 134.806C14.046 133.936 12.9206 132.527 12.4704 130.776L10.7822 124.093C10.3433 122.342 10.6697 120.569 11.5588 119.138C11.5926 119.083 11.6263 119.028 11.6713 118.973C12.5717 117.619 13.9672 116.573 15.6779 116.165L24.5575 114.029ZM40.6961 105.617L42.992 105.067L50.1497 133.419L47.8539 133.969L40.6961 105.617ZM56.1145 96.2913C54.9103 95.4985 53.2672 95.8179 52.4569 96.996C51.6466 98.1741 51.9729 99.7816 53.1771 100.574C57.6226 103.481 60.5037 108.348 61.7642 113.534C63.1259 119.138 62.6195 125.018 60.1661 129.158C59.4345 130.391 59.8734 131.965 61.1227 132.67C62.3831 133.386 63.9925 132.956 64.7128 131.734C67.8302 126.471 68.528 119.171 66.8624 112.345C65.3318 105.981 61.7304 99.9578 56.1145 96.2913ZM52.2881 107.577C54.5389 110.109 55.9119 112.796 56.5084 115.582C57.1499 118.533 56.9136 121.538 55.9119 124.522C55.4618 125.877 53.9762 126.614 52.5919 126.174C51.2076 125.733 50.4536 124.28 50.9038 122.926C51.6128 120.779 51.7929 118.665 51.3652 116.65C50.9488 114.69 49.9472 112.774 48.3153 110.935C47.3699 109.867 47.4825 108.238 48.5741 107.313C49.6771 106.399 51.3427 106.509 52.2881 107.577ZM30.9724 118.466L37.6687 110.198C38.434 109.262 38.2652 107.896 37.3086 107.159C36.352 106.41 34.9565 106.575 34.2024 107.511L27.5061 115.78C26.7408 116.716 26.9096 118.081 27.8663 118.819C28.8229 119.568 30.2071 119.402 30.9724 118.466ZM27.1347 129.521L24.3662 118.544L16.7695 120.382C16.2068 120.514 15.7454 120.856 15.4415 121.285C15.419 121.318 15.4078 121.351 15.3853 121.384C15.0701 121.88 14.9576 122.474 15.1039 123.058L16.792 129.741C16.9383 130.325 17.321 130.809 17.8162 131.095C18.3114 131.393 18.9191 131.503 19.5268 131.349L27.1347 129.521Z" fill="#176FA7"/>
</svg>
