<svg width="414" height="197" viewBox="0 0 414 197" fill="none" xmlns="http://www.w3.org/2000/svg">
<path d="M32.4039 7.67585C34.3592 5.73306 37.5162 5.73305 39.4715 7.67584L70.3854 38.3913C73.5596 41.545 71.3262 46.9617 66.8516 46.9617H5.02381C0.549253 46.9617 -1.68418 41.545 1.48998 38.3913L32.4039 7.67585Z" fill="#8BC0E2"/>
<path fill-rule="evenodd" clip-rule="evenodd" d="M61.8151 47.3637C61.8151 44.3461 59.3689 41.8999 56.3513 41.8999H14.8363C11.8188 41.8999 9.37256 44.3461 9.37256 47.3637V73.9015C9.37256 76.9191 11.8188 79.3653 14.8363 79.3653H18.2119C21.2294 79.3653 23.6756 76.9191 23.6756 73.9015V67.1979C23.6756 64.1803 26.1218 61.7341 29.1394 61.7341H42.0494C45.0669 61.7341 47.5131 64.1803 47.5131 67.1979V73.9015C47.5131 76.9191 49.9594 79.3653 52.9769 79.3653H56.3513C59.3689 79.3653 61.8151 76.9191 61.8151 73.9015V47.3637Z" fill="#8BC0E2"/>
<rect x="32.9023" y="13.8125" width="8.0248" height="31.0053" rx="4.0124" transform="rotate(45.2946 32.9023 13.8125)" fill="white"/>
<path d="M32.4039 118.727C34.3592 116.785 37.5162 116.785 39.4715 118.727L70.3854 149.443C73.5596 152.597 71.3262 158.013 66.8516 158.013H5.02381C0.549253 158.013 -1.68418 152.597 1.48998 149.443L32.4039 118.727Z" fill="#176FA7"/>
<path fill-rule="evenodd" clip-rule="evenodd" d="M61.8151 158.415C61.8151 155.398 59.3689 152.951 56.3513 152.951H14.8363C11.8188 152.951 9.37256 155.398 9.37256 158.415V184.953C9.37256 187.971 11.8188 190.417 14.8363 190.417H18.2119C21.2294 190.417 23.6756 187.971 23.6756 184.953V178.25C23.6756 175.232 26.1218 172.786 29.1394 172.786H42.0494C45.0669 172.786 47.5131 175.232 47.5131 178.25V184.953C47.5131 187.971 49.9594 190.417 52.9769 190.417H56.3513C59.3689 190.417 61.8151 187.971 61.8151 184.953V158.415Z" fill="#176FA7"/>
<rect x="32.9023" y="124.864" width="8.0248" height="31.0053" rx="4.0124" transform="rotate(45.2946 32.9023 124.864)" fill="white"/>
<path fill-rule="evenodd" clip-rule="evenodd" d="M126.977 36.5342L141.592 17.7696C142.638 16.4237 144.634 16.1453 146.034 17.1508C146.645 17.5839 147.048 18.2027 147.209 18.8524L160.423 70.2888C160.841 71.9286 159.811 73.5838 158.105 73.986C157.252 74.1871 156.399 74.0479 155.707 73.6457L134.333 63.6987L121.296 66.7927C118.737 67.396 116.146 66.9474 114.053 65.7253C111.945 64.5032 110.335 62.5231 109.691 60.0634L107.277 50.6734C106.65 48.2137 107.116 45.7231 108.388 43.7121C108.436 43.6347 108.484 43.5574 108.549 43.48C109.836 41.5773 111.832 40.1076 114.279 39.5353L126.977 36.5342ZM150.058 24.7154L153.341 23.9419L163.577 63.7761L160.294 64.5496L150.058 24.7154ZM172.108 11.6127C170.385 10.4989 168.036 10.9475 166.877 12.6027C165.718 14.258 166.185 16.5165 167.907 17.6303C174.264 21.7143 178.385 28.5519 180.187 35.838C182.135 43.7121 181.411 51.9728 177.902 57.7894C176.856 59.522 177.483 61.7341 179.27 62.7242C181.073 63.7297 183.374 63.1264 184.404 61.4093C188.862 54.0148 189.86 43.7585 187.478 34.1673C185.289 25.2259 180.139 16.7641 172.108 11.6127ZM166.635 27.469C169.854 31.027 171.818 34.8016 172.671 38.7154C173.588 42.8612 173.25 47.0844 171.818 51.2767C171.174 53.1794 169.05 54.2159 167.07 53.5971C165.09 52.9783 164.012 50.9364 164.656 49.0336C165.67 46.017 165.927 43.0469 165.316 40.2159C164.72 37.4623 163.288 34.7706 160.954 32.1872C159.602 30.6867 159.763 28.3972 161.324 27.0977C162.901 25.8138 165.283 25.9684 166.635 27.469ZM136.152 42.7684L145.728 31.1508C146.823 29.8358 146.581 27.9176 145.213 26.8812C143.845 25.8292 141.849 26.0613 140.771 27.3762L131.194 38.9938C130.1 40.3088 130.341 42.227 131.709 43.2634C133.077 44.3154 135.057 44.0833 136.152 42.7684ZM130.663 58.2999L126.704 42.8767L115.84 45.4601C115.035 45.6458 114.375 46.1253 113.941 46.7286C113.908 46.775 113.892 46.8214 113.86 46.8679C113.409 47.564 113.248 48.3993 113.458 49.2192L115.872 58.6093C116.081 59.4291 116.628 60.1098 117.337 60.512C118.045 60.9297 118.914 61.0844 119.783 60.8678L130.663 58.2999Z" fill="#8CC1E2"/>
<path fill-rule="evenodd" clip-rule="evenodd" d="M126.587 148.135L141.201 129.37C142.247 128.025 144.243 127.746 145.643 128.752C146.255 129.185 146.657 129.804 146.818 130.453L160.032 181.89C160.451 183.529 159.421 185.185 157.714 185.587C156.861 185.788 156.008 185.649 155.316 185.247L133.942 175.3L120.905 178.393C118.346 178.997 115.755 178.548 113.663 177.326C111.554 176.104 109.945 174.124 109.301 171.664L106.887 162.274C106.259 159.815 106.726 157.324 107.997 155.313C108.045 155.236 108.094 155.158 108.158 155.081C109.446 153.178 111.441 151.708 113.888 151.136L126.587 148.135ZM149.667 136.316L152.95 135.543L163.187 175.377L159.903 176.15L149.667 136.316ZM171.717 123.214C169.995 122.1 167.645 122.548 166.486 124.204C165.327 125.859 165.794 128.117 167.516 129.231C173.874 133.315 177.994 140.153 179.797 147.439C181.744 155.313 181.02 163.574 177.511 169.39C176.465 171.123 177.093 173.335 178.879 174.325C180.682 175.331 182.983 174.727 184.014 173.01C188.472 165.616 189.47 155.359 187.088 145.768C184.899 136.827 179.748 128.365 171.717 123.214ZM166.245 139.07C169.464 142.628 171.427 146.402 172.28 150.316C173.198 154.462 172.86 158.685 171.427 162.878C170.784 164.78 168.659 165.817 166.679 165.198C164.7 164.579 163.621 162.537 164.265 160.634C165.279 157.618 165.537 154.648 164.925 151.817C164.329 149.063 162.897 146.371 160.563 143.788C159.211 142.288 159.372 139.998 160.933 138.699C162.511 137.415 164.893 137.569 166.245 139.07ZM135.761 154.369L145.337 142.752C146.432 141.437 146.19 139.518 144.822 138.482C143.454 137.43 141.459 137.662 140.38 138.977L130.804 150.595C129.709 151.91 129.951 153.828 131.319 154.864C132.687 155.916 134.666 155.684 135.761 154.369ZM130.273 169.901L126.313 154.478L115.449 157.061C114.644 157.247 113.984 157.726 113.55 158.329C113.518 158.376 113.502 158.422 113.469 158.469C113.019 159.165 112.858 160 113.067 160.82L115.481 170.21C115.691 171.03 116.238 171.711 116.946 172.113C117.654 172.531 118.523 172.685 119.392 172.469L130.273 169.901Z" fill="#176FA7"/>
<g clip-path="url(#clip0)">
<path d="M263.703 67.1558L261.945 62.5786L259.426 63.522L261.202 68.0992C259.879 69.1824 259.299 71.0168 259.951 72.6765C260.785 74.8078 263.159 75.8386 265.335 75.0524C267.51 74.2488 268.579 71.9078 267.745 69.7764C267.093 68.0992 265.461 67.086 263.703 67.1558Z" fill="#8BC0E2"/>
<path d="M291.218 60.3429C291.182 60.2206 291.146 60.0983 291.055 60.011C290.439 58.6657 288.916 57.7573 286.578 57.3205C286.071 57.2157 285.509 57.1633 284.929 57.1284C280.452 52.6734 278.458 45.4058 272.096 30.0843C263.885 10.4651 244.4 13.767 241.771 14.4833C241.463 11.7754 240.738 9.2422 239.759 6.60418C238.907 4.33303 237.258 -0.71589 233.905 0.087745C230.153 0.978732 231.947 6.14995 232.926 8.33374C233.959 10.5874 235.355 12.6664 236.805 14.6755C237.204 15.2345 237.693 15.9508 238.255 16.5972C232.908 20.563 223.573 30.2939 229.174 46.1046C234.739 61.7231 238.164 68.4666 237.856 74.7035C237.439 75.0878 237.041 75.5071 236.732 75.9264C235.264 77.7958 234.739 79.4554 235.21 80.8705C235.246 80.9404 235.246 80.9754 235.246 81.0278C235.264 81.0627 235.264 81.0976 235.282 81.1151C237.476 86.7406 253.064 84.4345 266.604 79.3855C280.035 74.3541 293.14 66.0382 291.218 60.3429ZM232.763 41.5274C232.201 34.8537 233.579 29.0535 236.605 24.5811C237.312 23.5329 238.708 23.0962 239.923 23.5329C239.959 23.5504 239.995 23.5679 240.031 23.5679C241.681 24.1793 242.406 26.0836 241.427 27.4987C239.052 30.9578 238.001 35.6224 238.436 41.0731C238.962 47.31 241.354 53.9138 245.306 60.0983C246.103 61.3562 245.686 62.9984 244.381 63.7845C244.363 63.802 244.345 63.8195 244.309 63.8195C242.986 64.6231 241.228 64.2213 240.412 62.946C236.044 56.0277 233.361 48.6028 232.763 41.5274ZM265.498 76.5204C251.559 81.7266 240.557 82.0236 239.451 79.1934C239.451 79.1584 239.451 79.1235 239.451 79.106C239.433 79.0536 239.415 79.0187 239.397 78.9663C239.052 78.0054 239.814 76.7475 240.503 75.874C243.511 72.0305 251.396 67.3136 260.622 63.8894C269.848 60.4652 278.929 58.823 283.75 59.7489C284.856 59.9586 286.27 60.4128 286.651 61.3387C286.687 61.3911 286.687 61.4261 286.687 61.461C287.738 64.4484 279.328 71.3492 265.498 76.5204Z" fill="#8BC0E2"/>
</g>
<g clip-path="url(#clip1)">
<path d="M263.683 179.096L261.923 174.518L259.399 175.462L261.176 180.039C259.861 181.122 259.274 182.956 259.932 184.616C260.768 186.748 263.132 187.778 265.301 186.992C267.47 186.188 268.537 183.847 267.719 181.716C267.079 180.039 265.443 179.026 263.683 179.096Z" fill="#176FA7"/>
<g clip-path="url(#clip2)">
<path d="M263.51 179.06L261.761 174.51L259.255 175.448L261.022 179.998C259.706 181.074 259.129 182.898 259.778 184.548C260.607 186.666 262.969 187.691 265.133 186.91C267.296 186.111 268.36 183.784 267.531 181.665C266.882 179.998 265.259 178.99 263.51 179.06Z" fill="#176FA7"/>
<path d="M290.879 172.287C290.843 172.166 290.807 172.044 290.717 171.957C290.104 170.62 288.589 169.717 286.263 169.283C285.759 169.178 285.2 169.126 284.623 169.092C280.169 164.663 278.186 157.439 271.858 142.208C263.691 122.705 244.309 125.988 241.695 126.7C241.389 124.008 240.667 121.49 239.694 118.867C238.846 116.61 237.206 111.591 233.87 112.39C230.138 113.275 231.923 118.416 232.897 120.587C233.924 122.827 235.313 124.894 236.755 126.891C237.152 127.447 237.638 128.159 238.197 128.801C232.879 132.743 223.594 142.417 229.165 158.133C234.7 173.659 238.107 180.363 237.801 186.562C237.386 186.945 236.989 187.361 236.683 187.778C235.223 189.636 234.7 191.286 235.168 192.693C235.205 192.762 235.205 192.797 235.205 192.849C235.223 192.884 235.223 192.919 235.241 192.936C237.422 198.528 252.927 196.236 266.395 191.217C279.755 186.215 292.79 177.949 290.879 172.287ZM232.735 153.583C232.176 146.949 233.546 141.184 236.557 136.738C237.26 135.696 238.648 135.262 239.856 135.696C239.892 135.713 239.928 135.73 239.964 135.73C241.605 136.338 242.326 138.231 241.353 139.638C238.991 143.077 237.945 147.713 238.378 153.132C238.901 159.332 241.28 165.896 245.211 172.044C246.004 173.294 245.589 174.927 244.291 175.708C244.273 175.726 244.255 175.743 244.219 175.743C242.903 176.542 241.154 176.142 240.343 174.875C235.998 167.998 233.33 160.617 232.735 153.583ZM265.295 188.369C251.431 193.544 240.487 193.839 239.387 191.026C239.387 190.991 239.387 190.956 239.387 190.939C239.369 190.887 239.351 190.852 239.333 190.8C238.991 189.845 239.748 188.594 240.433 187.726C243.426 183.905 251.269 179.216 260.445 175.813C269.622 172.409 278.655 170.776 283.451 171.697C284.551 171.905 285.957 172.357 286.335 173.277C286.372 173.329 286.372 173.364 286.372 173.399C287.417 176.368 279.052 183.228 265.295 188.369Z" fill="#176FA7"/>
</g>
</g>
<path d="M403.871 41.186C403.871 58.5947 389.288 72.751 371.373 72.751V75.2806C390.723 75.2806 406.478 59.993 406.478 41.2017H403.871V41.186Z" fill="#8BC0E2"/>
<path d="M338.858 41.186H336.251C336.251 45.7425 337.175 50.0789 338.858 54.054H341.679C339.864 50.126 338.858 45.7739 338.858 41.186Z" fill="#8BC0E2"/>
<path d="M371.356 7.10718C352.006 7.10718 336.251 22.3947 336.251 41.186H338.858C338.858 23.7774 353.441 9.62106 371.356 9.62106C389.288 9.62106 403.855 23.7774 403.855 41.186H406.461C406.461 22.3947 390.723 7.10718 371.356 7.10718Z" fill="#8BC0E2"/>
<path d="M338.858 28.3181C333.249 28.3181 328.712 32.7174 328.712 38.1537V44.2184C328.712 49.6076 333.166 53.9755 338.709 54.054H338.858V28.3181V28.3181Z" fill="#8BC0E2"/>
<path d="M414 44.2185V38.1538C414 32.7175 409.464 28.3025 403.855 28.3025V54.0541C409.464 54.0698 414 49.6548 414 44.2185Z" fill="#8BC0E2"/>
<path d="M378.648 73.7566C378.648 75.7048 377.015 77.2917 375.002 77.2917H367.727C365.714 77.2917 364.081 75.7048 364.081 73.7566C364.081 71.8083 365.714 70.2214 367.727 70.2214H375.002C377.015 70.2214 378.648 71.8083 378.648 73.7566Z" fill="#8BC0E2"/>
<path d="M396.002 28.931V37.7139C396.002 38.4209 395.408 39.0022 394.666 39.0022C393.924 39.0022 393.33 38.4209 393.33 37.7139V24.8616C392.373 23.6518 391.317 22.5206 390.163 21.4836V37.7139C390.163 38.4209 389.569 39.0022 388.826 39.0022C388.084 39.0022 387.49 38.4209 387.49 37.7139V19.3625C386.484 18.6555 385.428 18.027 384.323 17.4457V37.6981C384.323 38.4052 383.729 38.9865 382.987 38.9865C382.244 38.9865 381.65 38.4052 381.65 37.6981V16.2516C380.627 15.843 379.572 15.5131 378.483 15.2303V37.7139C378.483 38.4209 377.889 39.0022 377.147 39.0022C376.404 39.0022 375.81 38.4209 375.81 37.7139V14.6647C374.771 14.5075 373.715 14.3819 372.643 14.3347V37.6981C372.643 38.4052 372.049 38.9865 371.307 38.9865C370.565 38.9865 369.971 38.4052 369.971 37.6981V14.3347C368.898 14.3819 367.843 14.4918 366.803 14.6647V37.6981C366.803 38.4052 366.209 38.9865 365.467 38.9865C364.741 38.9865 364.131 38.4052 364.131 37.6981V15.2303C363.042 15.5131 361.986 15.843 360.964 16.2516V37.7139C360.964 38.4209 360.37 39.0022 359.627 39.0022C358.885 39.0022 358.291 38.4209 358.291 37.7139V17.4614C357.186 18.027 356.13 18.6712 355.124 19.3782V37.7139C355.124 38.4209 354.53 39.0022 353.787 39.0022C353.045 39.0022 352.451 38.4209 352.451 37.7139V21.4679C351.296 22.5048 350.241 23.6361 349.284 24.8459V37.6981C349.284 38.4052 348.69 38.9865 347.948 38.9865C347.205 38.9865 346.611 38.4052 346.611 37.6981V28.9467C344.665 32.6232 343.56 36.7869 343.56 41.2019C343.56 56.0495 355.965 68.0847 371.257 68.0847C386.55 68.0847 398.955 56.0495 398.955 41.2019C399.054 36.7711 397.949 32.6075 396.002 28.931ZM389.486 50.5818C385.445 56.7565 378.796 60.8102 371.307 60.8102C363.867 60.8102 357.285 56.8351 353.227 50.7546C352.468 49.6077 352.996 48.0836 354.299 47.5651C354.315 47.5651 354.332 47.5494 354.348 47.5494C355.371 47.1566 356.542 47.4709 357.153 48.335C360.419 52.9543 365.533 55.9552 371.307 55.9552C377.13 55.9552 382.294 52.8914 385.543 48.1936C386.154 47.3138 387.325 46.9838 388.348 47.3923C388.364 47.3923 388.381 47.408 388.397 47.408C389.701 47.9265 390.245 49.4348 389.486 50.5818Z" fill="#8BC0E2"/>
<g clip-path="url(#clip3)">
<path d="M403.871 153.126C403.871 170.535 389.288 184.691 371.373 184.691V187.221C390.723 187.221 406.477 171.933 406.477 153.142H403.871V153.126Z" fill="#176FA7"/>
<path d="M338.858 153.126H336.251C336.251 157.682 337.175 162.019 338.858 165.994H341.679C339.864 162.066 338.858 157.714 338.858 153.126Z" fill="#176FA7"/>
<path d="M371.356 119.047C352.005 119.047 336.251 134.335 336.251 153.126H338.858C338.858 135.717 353.441 121.561 371.356 121.561C389.288 121.561 403.854 135.717 403.854 153.126H406.461C406.461 134.335 390.723 119.047 371.356 119.047Z" fill="#176FA7"/>
<path d="M338.858 140.258C333.249 140.258 328.712 144.657 328.712 150.094V156.158C328.712 161.548 333.166 165.915 338.709 165.994H338.858V140.258V140.258Z" fill="#176FA7"/>
<path d="M414 156.158V150.094C414 144.657 409.463 140.242 403.854 140.242V165.994C409.463 166.01 414 161.595 414 156.158Z" fill="#176FA7"/>
<path d="M378.648 185.696C378.648 187.645 377.015 189.231 375.002 189.231H367.727C365.714 189.231 364.081 187.645 364.081 185.696C364.081 183.748 365.714 182.161 367.727 182.161H375.002C377.015 182.161 378.648 183.748 378.648 185.696Z" fill="#176FA7"/>
<path d="M396.002 140.871V149.654C396.002 150.361 395.408 150.942 394.666 150.942C393.924 150.942 393.33 150.361 393.33 149.654V136.802C392.373 135.592 391.317 134.46 390.163 133.424V149.654C390.163 150.361 389.569 150.942 388.826 150.942C388.084 150.942 387.49 150.361 387.49 149.654V131.302C386.484 130.595 385.428 129.967 384.323 129.386V149.638C384.323 150.345 383.729 150.926 382.987 150.926C382.244 150.926 381.65 150.345 381.65 149.638V128.191C380.627 127.783 379.572 127.453 378.483 127.17V149.654C378.483 150.361 377.889 150.942 377.147 150.942C376.404 150.942 375.81 150.361 375.81 149.654V126.605C374.771 126.447 373.715 126.322 372.643 126.275V149.638C372.643 150.345 372.049 150.926 371.307 150.926C370.565 150.926 369.971 150.345 369.971 149.638V126.275C368.898 126.322 367.843 126.432 366.803 126.605V149.638C366.803 150.345 366.209 150.926 365.467 150.926C364.741 150.926 364.131 150.345 364.131 149.638V127.17C363.042 127.453 361.986 127.783 360.964 128.191V149.654C360.964 150.361 360.37 150.942 359.627 150.942C358.885 150.942 358.291 150.361 358.291 149.654V129.401C357.186 129.967 356.13 130.611 355.124 131.318V149.654C355.124 150.361 354.53 150.942 353.787 150.942C353.045 150.942 352.451 150.361 352.451 149.654V133.408C351.296 134.445 350.241 135.576 349.284 136.786V149.638C349.284 150.345 348.69 150.926 347.948 150.926C347.205 150.926 346.611 150.345 346.611 149.638V140.887C344.665 144.563 343.56 148.727 343.56 153.142C343.56 167.989 355.965 180.025 371.257 180.025C386.55 180.025 398.955 167.989 398.955 153.142C399.054 148.711 397.949 144.547 396.002 140.871ZM389.486 162.522C385.445 168.696 378.796 172.75 371.307 172.75C363.867 172.75 357.285 168.775 353.227 162.695C352.468 161.548 352.996 160.024 354.299 159.505C354.315 159.505 354.332 159.489 354.348 159.489C355.371 159.097 356.542 159.411 357.153 160.275C360.419 164.894 365.533 167.895 371.307 167.895C377.13 167.895 382.294 164.831 385.543 160.134C386.154 159.254 387.325 158.924 388.348 159.332C388.364 159.332 388.381 159.348 388.397 159.348C389.701 159.866 390.245 161.375 389.486 162.522Z" fill="#176FA7"/>
</g>
<defs>
<clipPath id="clip0">
<rect width="63.9657" height="84.3991" fill="white" transform="translate(227.434)"/>
</clipPath>
<clipPath id="clip1">
<rect width="63.9657" height="84.3991" fill="white" transform="translate(227.434 111.94)"/>
</clipPath>
<clipPath id="clip2">
<rect width="63.6252" height="83.898" fill="white" transform="translate(227.434 112.303)"/>
</clipPath>
<clipPath id="clip3">
<rect width="85.2876" height="70.1845" fill="white" transform="translate(328.712 119.047)"/>
</clipPath>
</defs>
</svg>
