<svg width="347" height="170" viewBox="0 0 347 170" fill="none" xmlns="http://www.w3.org/2000/svg">
<path d="M47.847 6.46637C49.8719 4.45446 53.1412 4.45446 55.1661 6.46637L87.1799 38.2746C90.467 41.5406 88.1541 47.1499 83.5204 47.1499H19.4928C14.859 47.1499 12.5461 41.5406 15.8332 38.2746L47.847 6.46637Z" fill="#8BC0E2"/>
<path fill-rule="evenodd" clip-rule="evenodd" d="M78.305 47.1003C78.305 44.2328 75.9804 41.9082 73.1128 41.9082H29.1887C26.3212 41.9082 23.9966 44.2328 23.9966 47.1003V75.5144C23.9966 78.382 26.3212 80.7066 29.1887 80.7066H33.6164C36.4839 80.7066 38.8085 78.382 38.8085 75.5144V67.6405C38.8085 64.773 41.1331 62.4484 44.0006 62.4484H58.302C61.1695 62.4484 63.4941 64.773 63.4941 67.6405V75.5144C63.4941 78.382 65.8187 80.7066 68.6862 80.7066H73.1128C75.9804 80.7066 78.305 78.382 78.305 75.5144V47.1003Z" fill="#8BC0E2"/>
<rect x="48.3633" y="12.8213" width="8.31032" height="32.1085" rx="4.15516" transform="rotate(45.2946 48.3633 12.8213)" fill="white"/>
<path d="M47.847 91.1688C49.8719 89.1569 53.1412 89.1569 55.1661 91.1688L87.1799 122.977C90.467 126.243 88.1541 131.852 83.5204 131.852H19.4928C14.859 131.852 12.5461 126.243 15.8332 122.977L47.847 91.1688Z" fill="#176FA7"/>
<path fill-rule="evenodd" clip-rule="evenodd" d="M78.305 131.803C78.305 128.935 75.9804 126.611 73.1128 126.611H29.1887C26.3212 126.611 23.9966 128.935 23.9966 131.803V160.217C23.9966 163.084 26.3212 165.409 29.1887 165.409H33.6164C36.4839 165.409 38.8085 163.084 38.8085 160.217V152.343C38.8085 149.475 41.1331 147.151 44.0006 147.151H58.302C61.1695 147.151 63.4941 149.475 63.4941 152.343V160.217C63.4941 163.084 65.8187 165.409 68.6862 165.409H73.1128C75.9804 165.409 78.305 163.084 78.305 160.217V131.803Z" fill="#176FA7"/>
<rect x="48.3633" y="97.5237" width="8.31032" height="32.1085" rx="4.15516" transform="rotate(45.2946 48.3633 97.5237)" fill="white"/>
<path fill-rule="evenodd" clip-rule="evenodd" d="M115.225 36.8408L129.716 18.2556C130.754 16.9226 132.733 16.6469 134.121 17.6428C134.728 18.0718 135.127 18.6846 135.286 19.3281L148.389 70.2727C148.804 71.8968 147.783 73.5362 146.091 73.9346C145.245 74.1337 144.399 73.9958 143.713 73.5975L122.518 63.7457L109.591 66.81C107.053 67.4075 104.484 66.9632 102.409 65.7528C100.318 64.5424 98.7223 62.5812 98.0839 60.1451L95.69 50.8448C95.0675 48.4087 95.5304 45.9419 96.7912 43.9501C96.8391 43.8735 96.887 43.7968 96.9508 43.7202C98.2276 41.8357 100.207 40.3801 102.632 39.8132L115.225 36.8408ZM138.111 25.1351L141.367 24.369L151.517 63.8223L148.261 64.5883L138.111 25.1351ZM159.976 12.1576C158.268 11.0544 155.938 11.4988 154.789 13.1382C153.64 14.7776 154.103 17.0146 155.81 18.1177C162.115 22.1627 166.2 28.9348 167.988 36.1513C169.919 43.9501 169.201 52.1318 165.721 57.8928C164.684 59.6088 165.307 61.7998 167.078 62.7804C168.866 63.7763 171.148 63.1788 172.169 61.478C176.59 54.1543 177.58 43.996 175.218 34.4966C173.047 25.6407 167.94 17.2597 159.976 12.1576ZM154.55 27.8623C157.742 31.3863 159.689 35.1248 160.535 39.0012C161.444 43.1074 161.109 47.2902 159.689 51.4424C159.05 53.3269 156.944 54.3535 154.981 53.7406C153.017 53.1277 151.948 51.1053 152.587 49.2207C153.592 46.233 153.847 43.2912 153.241 40.4874C152.65 37.7601 151.23 35.0941 148.916 32.5354C147.575 31.0492 147.735 28.7816 149.283 27.4946C150.847 26.2229 153.209 26.3761 154.55 27.8623ZM124.322 43.0154L133.818 31.5089C134.903 30.2065 134.664 28.3066 133.307 27.2801C131.951 26.2382 129.972 26.468 128.902 27.7704L119.406 39.277C118.321 40.5793 118.56 42.4792 119.917 43.5057C121.273 44.5476 123.237 44.3178 124.322 43.0154ZM118.88 58.3984L114.953 43.1227L104.181 45.6814C103.383 45.8653 102.728 46.3402 102.297 46.9378C102.265 46.9838 102.249 47.0297 102.218 47.0757C101.771 47.7652 101.611 48.5925 101.819 49.4046L104.212 58.7048C104.42 59.5169 104.963 60.191 105.665 60.5894C106.367 61.0031 107.229 61.1563 108.091 60.9418L118.88 58.3984Z" fill="#8CC1E2"/>
<path fill-rule="evenodd" clip-rule="evenodd" d="M115.225 121.265L129.716 102.68C130.754 101.347 132.733 101.071 134.121 102.067C134.728 102.496 135.127 103.109 135.286 103.752L148.389 154.697C148.804 156.321 147.783 157.961 146.091 158.359C145.245 158.558 144.399 158.42 143.713 158.022L122.518 148.17L109.591 151.234C107.053 151.832 104.484 151.388 102.409 150.177C100.318 148.967 98.7223 147.006 98.0839 144.569L95.69 135.269C95.0675 132.833 95.5304 130.366 96.7912 128.374C96.8391 128.298 96.887 128.221 96.9508 128.145C98.2276 126.26 100.207 124.804 102.632 124.238L115.225 121.265ZM138.111 109.559L141.367 108.793L151.517 148.247L148.261 149.013L138.111 109.559ZM159.976 96.5819C158.268 95.4788 155.938 95.9231 154.789 97.5625C153.64 99.2019 154.103 101.439 155.81 102.542C162.115 106.587 166.2 113.359 167.988 120.576C169.919 128.374 169.201 136.556 165.721 142.317C164.684 144.033 165.307 146.224 167.078 147.205C168.866 148.201 171.148 147.603 172.169 145.902C176.59 138.579 177.58 128.42 175.218 118.921C173.047 110.065 167.94 101.684 159.976 96.5819ZM154.55 112.287C157.742 115.811 159.689 119.549 160.535 123.425C161.444 127.532 161.109 131.715 159.689 135.867C159.05 137.751 156.944 138.778 154.981 138.165C153.017 137.552 151.948 135.53 152.587 133.645C153.592 130.657 153.847 127.716 153.241 124.912C152.65 122.184 151.23 119.518 148.916 116.96C147.575 115.474 147.735 113.206 149.283 111.919C150.847 110.647 153.209 110.8 154.55 112.287ZM124.322 127.44L133.818 115.933C134.903 114.631 134.664 112.731 133.307 111.704C131.951 110.663 129.972 110.892 128.902 112.195L119.406 123.701C118.321 125.004 118.56 126.904 119.917 127.93C121.273 128.972 123.237 128.742 124.322 127.44ZM118.88 142.823L114.953 127.547L104.181 130.106C103.383 130.29 102.728 130.765 102.297 131.362C102.265 131.408 102.249 131.454 102.218 131.5C101.771 132.189 101.611 133.017 101.819 133.829L104.212 143.129C104.42 143.941 104.963 144.615 105.665 145.014C106.367 145.427 107.229 145.581 108.091 145.366L118.88 142.823Z" fill="#176FA7"/>
<path d="M224.643 67.7517L222.878 63.1731L220.345 64.1168L222.129 68.6954C220.809 69.7789 220.221 71.6138 220.88 73.274C221.719 75.406 224.09 76.437 226.266 75.6506C228.442 74.8468 229.512 72.505 228.691 70.373C228.049 68.6954 226.409 67.6818 224.643 67.7517Z" fill="#8CC1E2"/>
<g clip-path="url(#clip0)">
<path d="M224.47 67.7157L222.715 63.1643L220.202 64.1024L221.974 68.6538C220.654 69.7309 220.075 71.5549 220.726 73.2052C221.558 75.3246 223.927 76.3495 226.097 75.5678C228.267 74.7687 229.334 72.4409 228.503 70.3215C227.852 68.6538 226.224 67.6462 224.47 67.7157Z" fill="#8BC0E2"/>
<path d="M251.923 60.9409C251.887 60.8193 251.85 60.6977 251.76 60.6108C251.145 59.2732 249.626 58.3699 247.293 57.9356C246.787 57.8313 246.226 57.7792 245.647 57.7445C241.18 53.3147 239.191 46.088 232.843 30.8529C224.651 11.3444 205.21 14.6276 202.588 15.3399C202.28 12.6472 201.557 10.1283 200.58 7.50518C199.73 5.24684 198.084 0.22639 194.739 1.02549C190.995 1.91146 192.786 7.05351 193.762 9.22499C194.793 11.466 196.186 13.5332 197.632 15.531C198.03 16.0869 198.519 16.7991 199.079 17.4419C193.744 21.3853 184.43 31.0614 190.019 46.7829C195.571 62.3133 198.989 69.0188 198.681 75.2205C198.265 75.6027 197.867 76.0196 197.56 76.4365C196.095 78.2953 195.571 79.9456 196.041 81.3528C196.077 81.4223 196.077 81.457 196.077 81.5091C196.095 81.5439 196.095 81.5786 196.113 81.596C198.301 87.1897 213.854 84.8966 227.364 79.8762C240.765 74.8731 253.84 66.6041 251.923 60.9409ZM193.599 42.2314C193.039 35.5954 194.413 29.828 197.433 25.3808C198.139 24.3385 199.531 23.9042 200.743 24.3385C200.779 24.3558 200.815 24.3732 200.851 24.3732C202.497 24.9812 203.221 26.8748 202.244 28.2819C199.875 31.7215 198.826 36.3598 199.26 41.7798C199.784 47.9815 202.172 54.5481 206.114 60.6977C206.91 61.9484 206.494 63.5814 205.192 64.3631C205.174 64.3805 205.156 64.3979 205.119 64.3979C203.799 65.197 202.045 64.7974 201.231 63.5293C196.873 56.65 194.196 49.267 193.599 42.2314ZM226.261 77.0272C212.353 82.204 201.376 82.4993 200.273 79.6851C200.273 79.6503 200.273 79.6156 200.273 79.5982C200.255 79.5461 200.237 79.5114 200.218 79.4592C199.875 78.5038 200.634 77.253 201.322 76.3844C204.324 72.5626 212.191 67.8722 221.396 64.4674C230.601 61.0625 239.661 59.4295 244.472 60.3502C245.575 60.5587 246.986 61.0104 247.365 61.9311C247.402 61.9832 247.402 62.0179 247.402 62.0527C248.451 65.0233 240.059 71.8851 226.261 77.0272Z" fill="#8BC0E2"/>
</g>
<g clip-path="url(#clip1)">
<path d="M224.643 152.176L222.878 147.598L220.345 148.541L222.129 153.12C220.809 154.203 220.221 156.038 220.88 157.699C221.719 159.831 224.09 160.862 226.266 160.075C228.442 159.271 229.512 156.93 228.691 154.798C228.049 153.12 226.409 152.106 224.643 152.176Z" fill="#176FA7"/>
<g clip-path="url(#clip2)">
<path d="M224.47 152.14L222.715 147.589L220.202 148.527L221.974 153.078C220.654 154.155 220.075 155.979 220.726 157.63C221.558 159.749 223.927 160.774 226.097 159.992C228.267 159.193 229.334 156.865 228.503 154.746C227.852 153.078 226.224 152.071 224.47 152.14Z" fill="#176FA7"/>
<path d="M251.923 145.365C251.887 145.244 251.85 145.122 251.76 145.035C251.145 143.698 249.626 142.794 247.293 142.36C246.787 142.256 246.226 142.204 245.647 142.169C241.18 137.739 239.191 130.513 232.843 115.277C224.651 95.7689 205.21 99.0522 202.588 99.7644C202.28 97.0718 201.557 94.5529 200.58 91.9297C199.73 89.6714 198.084 84.651 194.739 85.4501C190.995 86.336 192.786 91.4781 193.762 93.6496C194.793 95.8905 196.186 97.9578 197.632 99.9555C198.03 100.511 198.519 101.224 199.079 101.866C193.744 105.81 184.43 115.486 190.019 131.207C195.571 146.738 198.989 153.443 198.681 159.645C198.265 160.027 197.867 160.444 197.56 160.861C196.095 162.72 195.571 164.37 196.041 165.777C196.077 165.847 196.077 165.882 196.077 165.934C196.095 165.968 196.095 166.003 196.113 166.021C198.301 171.614 213.854 169.321 227.364 164.301C240.765 159.298 253.84 151.029 251.923 145.365ZM193.599 126.656C193.039 120.02 194.413 114.253 197.433 109.805C198.139 108.763 199.531 108.329 200.743 108.763C200.779 108.78 200.815 108.798 200.851 108.798C202.497 109.406 203.221 111.299 202.244 112.706C199.875 116.146 198.826 120.784 199.26 126.204C199.784 132.406 202.172 138.973 206.114 145.122C206.91 146.373 206.494 148.006 205.192 148.788C205.174 148.805 205.156 148.822 205.119 148.822C203.799 149.622 202.045 149.222 201.231 147.954C196.873 141.075 194.196 133.692 193.599 126.656ZM226.261 161.452C212.353 166.629 201.376 166.924 200.273 164.11C200.273 164.075 200.273 164.04 200.273 164.023C200.255 163.971 200.237 163.936 200.218 163.884C199.875 162.928 200.634 161.678 201.322 160.809C204.324 156.987 212.191 152.297 221.396 148.892C230.601 145.487 239.661 143.854 244.472 144.775C245.575 144.983 246.986 145.435 247.365 146.356C247.402 146.408 247.402 146.442 247.402 146.477C248.451 149.448 240.059 156.31 226.261 161.452Z" fill="#176FA7"/>
</g>
</g>
<path d="M335.686 43.0911C335.686 59.6343 321.828 73.0868 304.804 73.0868V75.4906C323.192 75.4906 338.163 60.9631 338.163 43.106H335.686V43.0911Z" fill="#8BC0E2"/>
<path d="M273.905 43.0911H271.428C271.428 47.421 272.306 51.5418 273.905 55.3193H276.586C274.861 51.5866 273.905 47.4508 273.905 43.0911Z" fill="#8BC0E2"/>
<path d="M304.788 10.7063C286.399 10.7063 271.428 25.2339 271.428 43.091H273.905C273.905 26.5478 287.763 13.0952 304.788 13.0952C321.828 13.0952 335.671 26.5478 335.671 43.091H338.147C338.147 25.2339 323.192 10.7063 304.788 10.7063Z" fill="#8BC0E2"/>
<path d="M273.905 30.8625C268.575 30.8625 264.264 35.0431 264.264 40.2092V45.9724C264.264 51.0936 268.497 55.2443 273.764 55.319H273.905V30.8625V30.8625Z" fill="#8BC0E2"/>
<path d="M345.312 45.9727V40.2094C345.312 35.0434 341.001 30.8479 335.671 30.8479V55.3193C341.001 55.3342 345.312 51.1387 345.312 45.9727Z" fill="#8BC0E2"/>
<path d="M311.717 74.0423C311.717 75.8937 310.165 77.4017 308.253 77.4017H301.339C299.427 77.4017 297.875 75.8937 297.875 74.0423C297.875 72.1909 299.427 70.6829 301.339 70.6829H308.253C310.165 70.6829 311.717 72.1909 311.717 74.0423Z" fill="#8BC0E2"/>
<path d="M328.209 31.4451V39.7913C328.209 40.4632 327.644 41.0156 326.939 41.0156C326.233 41.0156 325.669 40.4632 325.669 39.7913V27.578C324.76 26.4284 323.757 25.3533 322.659 24.3679V39.7913C322.659 40.4632 322.095 41.0156 321.389 41.0156C320.684 41.0156 320.12 40.4632 320.12 39.7913V22.3523C319.163 21.6804 318.16 21.0832 317.11 20.5307V39.7764C317.11 40.4483 316.545 41.0007 315.84 41.0007C315.134 41.0007 314.57 40.4483 314.57 39.7764V19.396C313.598 19.0078 312.595 18.6943 311.56 18.4255V39.7913C311.56 40.4632 310.996 41.0156 310.29 41.0156C309.585 41.0156 309.021 40.4632 309.021 39.7913V17.888C308.033 17.7387 307.03 17.6193 306.011 17.5745V39.7764C306.011 40.4483 305.446 41.0007 304.741 41.0007C304.035 41.0007 303.471 40.4483 303.471 39.7764V17.5745C302.452 17.6193 301.449 17.7238 300.461 17.888V39.7764C300.461 40.4483 299.897 41.0007 299.191 41.0007C298.502 41.0007 297.922 40.4483 297.922 39.7764V18.4255C296.887 18.6943 295.884 19.0078 294.912 19.396V39.7913C294.912 40.4632 294.347 41.0156 293.642 41.0156C292.937 41.0156 292.372 40.4632 292.372 39.7913V20.5457C291.322 21.0832 290.319 21.6953 289.362 22.3672V39.7913C289.362 40.4632 288.798 41.0156 288.092 41.0156C287.387 41.0156 286.823 40.4632 286.823 39.7913V24.353C285.725 25.3384 284.722 26.4134 283.813 27.5631V39.7764C283.813 40.4483 283.248 41.0007 282.543 41.0007C281.838 41.0007 281.273 40.4483 281.273 39.7764V31.46C279.423 34.9538 278.373 38.9104 278.373 43.1059C278.373 57.2154 290.162 68.6523 304.694 68.6523C319.226 68.6523 331.015 57.2154 331.015 43.1059C331.109 38.8955 330.058 34.9389 328.209 31.4451ZM322.016 52.0196C318.176 57.8873 311.858 61.7394 304.741 61.7394C297.671 61.7394 291.416 57.962 287.559 52.1838C286.838 51.0939 287.34 49.6456 288.578 49.1529C288.594 49.1529 288.61 49.1379 288.625 49.1379C289.597 48.7647 290.71 49.0633 291.29 49.8845C294.394 54.2741 299.254 57.1258 304.741 57.1258C310.275 57.1258 315.181 54.2144 318.27 49.7501C318.85 48.914 319.963 48.6004 320.935 48.9886C320.95 48.9886 320.966 49.0036 320.982 49.0036C322.22 49.4963 322.738 50.9296 322.016 52.0196Z" fill="#8BC0E2"/>
<g clip-path="url(#clip3)">
<path d="M335.686 125.827C335.686 142.37 321.828 155.823 304.803 155.823V158.227C323.192 158.227 338.163 143.699 338.163 125.842H335.686V125.827Z" fill="#176FA7"/>
<path d="M273.905 125.827H271.428C271.428 130.157 272.306 134.278 273.905 138.055H276.586C274.861 134.323 273.905 130.187 273.905 125.827Z" fill="#176FA7"/>
<path d="M304.788 93.4424C286.399 93.4424 271.428 107.97 271.428 125.827H273.905C273.905 109.284 287.763 95.8313 304.788 95.8313C321.828 95.8313 335.671 109.284 335.671 125.827H338.147C338.147 107.97 323.192 93.4424 304.788 93.4424Z" fill="#176FA7"/>
<path d="M273.905 113.599C268.575 113.599 264.264 117.779 264.264 122.945V128.709C264.264 133.83 268.497 137.981 273.764 138.055H273.905V113.599V113.599Z" fill="#176FA7"/>
<path d="M345.311 128.709V122.946C345.311 117.78 341 113.584 335.67 113.584V138.055C341 138.07 345.311 133.875 345.311 128.709Z" fill="#176FA7"/>
<path d="M311.717 156.778C311.717 158.63 310.165 160.138 308.252 160.138H301.339C299.426 160.138 297.875 158.63 297.875 156.778C297.875 154.927 299.426 153.419 301.339 153.419H308.252C310.165 153.419 311.717 154.927 311.717 156.778Z" fill="#176FA7"/>
<path d="M328.209 114.181V122.527C328.209 123.199 327.644 123.752 326.939 123.752C326.233 123.752 325.669 123.199 325.669 122.527V110.314C324.76 109.164 323.757 108.089 322.659 107.104V122.527C322.659 123.199 322.095 123.752 321.389 123.752C320.684 123.752 320.12 123.199 320.12 122.527V105.088C319.163 104.416 318.16 103.819 317.11 103.267V122.512C317.11 123.184 316.545 123.737 315.84 123.737C315.134 123.737 314.57 123.184 314.57 122.512V102.132C313.598 101.744 312.595 101.43 311.56 101.162V122.527C311.56 123.199 310.996 123.752 310.29 123.752C309.585 123.752 309.021 123.199 309.021 122.527V100.624C308.033 100.475 307.03 100.355 306.011 100.311V122.512C306.011 123.184 305.446 123.737 304.741 123.737C304.035 123.737 303.471 123.184 303.471 122.512V100.311C302.452 100.355 301.449 100.46 300.461 100.624V122.512C300.461 123.184 299.897 123.737 299.191 123.737C298.502 123.737 297.922 123.184 297.922 122.512V101.162C296.887 101.43 295.884 101.744 294.912 102.132V122.527C294.912 123.199 294.347 123.752 293.642 123.752C292.937 123.752 292.372 123.199 292.372 122.527V103.282C291.322 103.819 290.319 104.431 289.362 105.103V122.527C289.362 123.199 288.798 123.752 288.092 123.752C287.387 123.752 286.823 123.199 286.823 122.527V107.089C285.725 108.075 284.722 109.15 283.813 110.299V122.512C283.813 123.184 283.248 123.737 282.543 123.737C281.838 123.737 281.273 123.184 281.273 122.512V114.196C279.423 117.69 278.373 121.646 278.373 125.842C278.373 139.952 290.162 151.388 304.694 151.388C319.226 151.388 331.015 139.952 331.015 125.842C331.109 121.632 330.058 117.675 328.209 114.181ZM322.016 134.756C318.176 140.623 311.858 144.476 304.741 144.476C297.671 144.476 291.416 140.698 287.559 134.92C286.838 133.83 287.34 132.382 288.578 131.889C288.594 131.889 288.61 131.874 288.625 131.874C289.597 131.501 290.71 131.799 291.29 132.621C294.394 137.01 299.254 139.862 304.741 139.862C310.275 139.862 315.181 136.95 318.27 132.486C318.85 131.65 319.963 131.337 320.935 131.725C320.95 131.725 320.966 131.74 320.982 131.74C322.22 132.232 322.738 133.666 322.016 134.756Z" fill="#176FA7"/>
</g>
<defs>
<clipPath id="clip0">
<rect width="63.8211" height="83.9232" fill="white" transform="translate(188.282 0.938477)"/>
</clipPath>
<clipPath id="clip1">
<rect width="64.1626" height="84.4245" fill="white" transform="translate(188.282 85)"/>
</clipPath>
<clipPath id="clip2">
<rect width="63.8211" height="83.9232" fill="white" transform="translate(188.282 85.363)"/>
</clipPath>
<clipPath id="clip3">
<rect width="81.0475" height="66.6954" fill="white" transform="translate(264.264 93.4424)"/>
</clipPath>
</defs>
</svg>
