<svg width="497" height="162" viewBox="0 0 497 162" fill="none" xmlns="http://www.w3.org/2000/svg">
<g clip-path="url(#clip0)">
<path d="M69.1035 19.4612C69.1035 17.2688 67.3226 15.4897 65.1122 15.4897H13.9981C11.7832 15.4897 10 17.2688 10 19.4612V25.4183H69.1035V19.4612Z" fill="#8BC0E2"/>
<path d="M9.99988 25.4185V57.3606C9.99988 59.5552 11.7831 61.3253 13.998 61.3253H65.1121C67.3202 61.3253 69.1034 59.5552 69.1034 57.3606V25.4185H9.99988Z" fill="#8BC0E2"/>
<path d="M22.4936 28.3161C22.4936 29.6369 21.4088 30.7152 20.0731 30.7152C18.7419 30.7152 17.6593 29.6347 17.6593 28.3161V22.8554C17.6593 21.5256 18.7396 20.4519 20.0731 20.4519C21.4088 20.4519 22.4936 21.5256 22.4936 22.8554V28.3161Z" fill="white"/>
<path d="M60.3636 28.3161C60.3636 29.6369 59.2855 30.7152 57.952 30.7152C56.6186 30.7152 55.5405 29.6347 55.5405 28.3161V22.8554C55.5405 21.5256 56.6186 20.4519 57.952 20.4519C59.2832 20.4519 60.3636 21.5256 60.3636 22.8554V28.3161Z" fill="white"/>
<path d="M27.8884 39.8506H20.4008V43.9164H27.8884V39.8506Z" fill="white"/>
<path d="M27.8884 45.572H20.4008V49.6378H27.8884V45.572Z" fill="white"/>
<path d="M27.8884 51.2932H20.4008V55.359H27.8884V51.2932Z" fill="white"/>
<path d="M37.7468 39.8506H30.2592V43.9164H37.7468V39.8506Z" fill="white"/>
<path d="M37.7468 45.572H30.2592V49.6378H37.7468V45.572Z" fill="white"/>
<path d="M37.7468 51.2932H30.2592V55.359H37.7468V51.2932Z" fill="white"/>
<path d="M48.2065 39.8506H40.7189V43.9164H48.2065V39.8506Z" fill="white"/>
<path d="M48.2065 45.572H40.7189V49.6378H48.2065V45.572Z" fill="white"/>
<path d="M48.2065 51.2932H40.7189V55.359H48.2065V51.2932Z" fill="white"/>
<path d="M58.0538 39.8506H50.5662V43.9164H58.0538V39.8506Z" fill="white"/>
<path d="M48.2065 34.3157H40.7189V38.3814H48.2065V34.3157Z" fill="white"/>
<path d="M58.0538 34.3157H50.5662V38.3814H58.0538V34.3157Z" fill="white"/>
<path d="M58.0538 45.572H50.5662V49.6378H58.0538V45.572Z" fill="white"/>
<rect x="14.2217" y="24.5361" width="50.6601" height="2.41239" rx="1.20619" fill="white"/>
</g>
<g clip-path="url(#clip1)">
<path d="M150.6 52.2391C150.979 52.0498 173.728 40.0816 173.728 40.0816C174.509 39.6697 174.811 38.7011 174.398 37.9218C173.985 37.1425 173.014 36.8419 172.233 37.2538L149.562 49.1663L124.48 43.7779C122.997 43.455 122.059 42.0077 122.372 40.527C122.695 39.0463 124.146 38.1111 125.63 38.4228L149.127 43.4327C149.819 43.5552 150.276 43.4995 150.8 43.2212C151.325 42.9429 173.728 31.1862 173.728 31.1862C174.509 30.7743 174.811 29.8057 174.398 29.0264C173.985 28.2471 173.014 27.9465 172.233 28.3584L149.584 40.2598L124.48 34.8936C122.997 34.5707 122.059 33.1234 122.372 31.6427C122.695 30.162 124.146 29.2268 125.63 29.5385L148.279 34.3147C149.004 34.4371 149.305 34.2367 149.528 34.1031C150.6 33.591 172.323 22.224 172.323 22.224C173.885 21.4113 173.751 20.4761 172.021 20.1421L149.506 15.6109C147.777 15.2769 145.066 15.6331 143.492 16.4125C143.492 16.4125 122.361 26.8888 122.193 27.0224C120.732 27.824 119.616 29.2268 119.237 30.9747C118.768 33.1345 119.56 35.2721 121.1 36.6526C120.185 37.4653 119.515 38.5564 119.237 39.8367C118.768 42.03 119.571 44.1898 121.156 45.5592C120.218 46.3719 119.515 47.4852 119.237 48.7878C118.545 51.9942 120.598 55.1449 123.811 55.8351C123.811 55.8351 148.547 61.1568 149.183 61.2681C149.83 61.3683 150.209 61.346 150.722 61.0677C151.235 60.7894 173.728 48.9771 173.728 48.9771C174.509 48.5651 174.811 47.5966 174.398 46.8172C173.985 46.0379 173.014 45.7373 172.233 46.1492L149.562 58.0729L124.48 52.6956C122.997 52.3727 122.059 50.9254 122.372 49.4447C122.695 47.9639 124.146 47.0288 125.63 47.3405L136.329 49.6339C136.329 49.6228 148.993 52.3393 149.328 52.395C149.897 52.484 150.231 52.4284 150.6 52.2391ZM148.669 20.9882L154.304 22.1238C155.788 22.4244 156.033 24.4284 154.661 25.0741C154.36 25.2188 154.014 25.2634 153.679 25.1966L148.045 24.061C146.561 23.7604 146.315 21.7564 147.687 21.1107C147.989 20.9659 148.335 20.9214 148.669 20.9882Z" fill="#8BC0E2"/>
</g>
<path fill-rule="evenodd" clip-rule="evenodd" d="M238.557 34.134L248.776 20.7782C249.508 19.8203 250.903 19.6221 251.883 20.3378C252.31 20.6461 252.592 21.0865 252.704 21.549L261.944 58.1589C262.237 59.326 261.516 60.5041 260.323 60.7904C259.727 60.9335 259.13 60.8344 258.646 60.5482L243.701 53.4684L234.585 55.6705C232.795 56.0999 230.983 55.7806 229.52 54.9108C228.046 54.0409 226.921 52.6316 226.47 50.8809L224.782 44.1976C224.343 42.4469 224.67 40.6742 225.559 39.2428C225.593 39.1878 225.626 39.1327 225.671 39.0777C226.572 37.7234 227.967 36.6774 229.678 36.27L238.557 34.134ZM254.696 25.7219L256.992 25.1714L264.15 53.5235L261.854 54.074L254.696 25.7219ZM270.115 16.396C268.91 15.6033 267.267 15.9226 266.457 17.1007C265.647 18.2788 265.973 19.8864 267.177 20.6791C271.623 23.5859 274.504 28.4525 275.764 33.6385C277.126 39.2428 276.619 45.1224 274.166 49.2624C273.435 50.4956 273.873 52.0701 275.123 52.7747C276.383 53.4904 277.993 53.061 278.713 51.8388C281.83 46.5758 282.528 39.2759 280.862 32.4494C279.332 26.0853 275.73 20.0625 270.115 16.396ZM266.288 27.6818C268.539 30.2142 269.912 32.9008 270.508 35.6864C271.15 38.6373 270.914 41.6431 269.912 44.627C269.462 45.9813 267.976 46.719 266.592 46.2785C265.208 45.8381 264.454 44.3847 264.904 43.0304C265.613 40.8834 265.793 38.7694 265.365 36.7545C264.949 34.7946 263.947 32.8788 262.315 31.04C261.37 29.972 261.482 28.3424 262.574 27.4176C263.677 26.5037 265.343 26.6138 266.288 27.6818ZM244.972 38.5712L251.669 30.3023C252.434 29.3664 252.265 28.0011 251.309 27.2634C250.352 26.5147 248.956 26.6798 248.202 27.6157L241.506 35.8846C240.741 36.8205 240.91 38.1858 241.866 38.9235C242.823 39.6722 244.207 39.5071 244.972 38.5712ZM241.135 49.6257L238.366 38.6483L230.77 40.487C230.207 40.6191 229.745 40.9605 229.442 41.3899C229.419 41.4229 229.408 41.4559 229.385 41.489C229.07 41.9844 228.958 42.579 229.104 43.1626L230.792 49.8459C230.938 50.4295 231.321 50.914 231.816 51.2002C232.311 51.4975 232.919 51.6076 233.527 51.4535L241.135 49.6257Z" fill="#8BC0E2"/>
<path d="M356.296 55.2112L355.105 52.1296L353.399 52.7648L354.602 55.8464C353.706 56.5756 353.313 57.8106 353.755 58.9279C354.32 60.3629 355.928 61.0568 357.401 60.5275C358.874 59.9865 359.598 58.4104 359.033 56.9755C358.591 55.8464 357.487 55.1642 356.296 55.2112Z" fill="#8BC0E2"/>
<path d="M374.93 50.6241C374.905 50.5418 374.88 50.4594 374.819 50.4006C374.402 49.495 373.371 48.8834 371.787 48.5893C371.443 48.5188 371.063 48.4835 370.67 48.4599C367.638 45.4607 366.288 40.5678 361.979 30.2527C356.419 17.0443 343.223 19.2672 341.443 19.7495C341.234 17.9264 340.743 16.2209 340.08 14.4449C339.503 12.9159 338.386 9.51672 336.116 10.0578C333.575 10.6576 334.79 14.1391 335.453 15.6093C336.152 17.1266 337.098 18.5262 338.08 19.8788C338.35 20.2552 338.681 20.7374 339.062 21.1726C335.44 23.8426 329.119 30.3939 332.912 41.0383C336.68 51.5533 339 56.0933 338.791 60.2923C338.509 60.551 338.239 60.8333 338.03 61.1156C337.036 62.3741 336.68 63.4915 336.999 64.4442C337.024 64.4912 337.024 64.5148 337.024 64.5501C337.036 64.5736 337.036 64.5971 337.048 64.6089C338.534 68.3962 349.09 66.8436 358.26 63.4444C367.356 60.0571 376.231 54.4585 374.93 50.6241ZM335.342 37.9567C334.962 33.4637 335.895 29.5588 337.945 26.5478C338.423 25.8421 339.368 25.548 340.191 25.8421C340.215 25.8538 340.24 25.8656 340.265 25.8656C341.382 26.2772 341.873 27.5593 341.21 28.512C339.602 30.8408 338.89 33.9812 339.184 37.6509C339.54 41.8498 341.161 46.2958 343.837 50.4594C344.377 51.3063 344.094 52.4119 343.211 52.9412C343.198 52.9529 343.186 52.9647 343.161 52.9647C342.265 53.5057 341.075 53.2352 340.522 52.3766C337.564 47.719 335.747 42.7202 335.342 37.9567ZM357.511 61.5155C348.072 65.0205 340.62 65.2205 339.872 63.3151C339.872 63.2915 339.872 63.268 339.872 63.2563C339.859 63.221 339.847 63.1974 339.835 63.1622C339.602 62.5153 340.117 61.6684 340.584 61.0803C342.621 58.4927 347.961 55.3171 354.209 53.0118C360.457 50.7064 366.607 49.6008 369.872 50.2242C370.621 50.3654 371.578 50.6712 371.836 51.2945C371.861 51.3298 371.861 51.3533 371.861 51.3769C372.573 53.3881 366.877 58.034 357.511 61.5155Z" fill="#8BC0E2"/>
<path d="M479.096 37.668C479.096 50.3665 468.611 60.6927 455.73 60.6927V62.5378C469.643 62.5378 480.97 51.3865 480.97 37.6794H479.096V37.668Z" fill="#8BC0E2"/>
<path d="M432.352 37.668H430.478C430.478 40.9916 431.142 44.1548 432.352 47.0543H434.38C433.075 44.1891 432.352 41.0145 432.352 37.668Z" fill="#8BC0E2"/>
<path d="M455.718 12.8098C441.805 12.8098 430.478 23.9611 430.478 37.6682H432.352C432.352 24.9697 442.837 14.6435 455.718 14.6435C468.611 14.6435 479.084 24.9697 479.084 37.6682H480.958C480.958 23.9611 469.643 12.8098 455.718 12.8098Z" fill="#8BC0E2"/>
<path d="M432.352 28.2822C428.319 28.2822 425.057 31.4912 425.057 35.4567V39.8805C425.057 43.8116 428.26 46.9977 432.245 47.055H432.352V28.2822V28.2822Z" fill="#8BC0E2"/>
<path d="M486.379 39.88V35.4562C486.379 31.4907 483.117 28.2703 479.084 28.2703V47.0545C483.117 47.0659 486.379 43.8455 486.379 39.88Z" fill="#8BC0E2"/>
<path d="M460.961 61.4266C460.961 62.8477 459.786 64.0052 458.339 64.0052H453.109C451.662 64.0052 450.487 62.8477 450.487 61.4266C450.487 60.0054 451.662 58.8479 453.109 58.8479H458.339C459.786 58.8479 460.961 60.0054 460.961 61.4266Z" fill="#8BC0E2"/>
<path d="M473.438 28.7288V35.1354C473.438 35.6512 473.011 36.0752 472.478 36.0752C471.944 36.0752 471.517 35.6512 471.517 35.1354V25.7605C470.829 24.878 470.07 24.0528 469.24 23.2964V35.1354C469.24 35.6512 468.813 36.0752 468.279 36.0752C467.745 36.0752 467.318 35.6512 467.318 35.1354V21.7492C466.595 21.2335 465.835 20.7751 465.041 20.351V35.124C465.041 35.6397 464.614 36.0637 464.08 36.0637C463.546 36.0637 463.119 35.6397 463.119 35.124V19.48C462.384 19.182 461.625 18.9413 460.842 18.7351V35.1354C460.842 35.6512 460.415 36.0752 459.881 36.0752C459.347 36.0752 458.92 35.6512 458.92 35.1354V18.3225C458.173 18.2079 457.414 18.1162 456.643 18.0818V35.124C456.643 35.6397 456.216 36.0637 455.682 36.0637C455.149 36.0637 454.722 35.6397 454.722 35.124V18.0818C453.951 18.1162 453.192 18.1964 452.444 18.3225V35.124C452.444 35.6397 452.017 36.0637 451.484 36.0637C450.962 36.0637 450.523 35.6397 450.523 35.124V18.7351C449.74 18.9413 448.981 19.182 448.246 19.48V35.1354C448.246 35.6512 447.819 36.0752 447.285 36.0752C446.751 36.0752 446.324 35.6512 446.324 35.1354V20.3625C445.529 20.7751 444.77 21.245 444.047 21.7607V35.1354C444.047 35.6512 443.62 36.0752 443.086 36.0752C442.552 36.0752 442.125 35.6512 442.125 35.1354V23.285C441.295 24.0414 440.536 24.8666 439.848 25.749V35.124C439.848 35.6397 439.421 36.0637 438.887 36.0637C438.353 36.0637 437.926 35.6397 437.926 35.124V28.7403C436.527 31.4221 435.732 34.4592 435.732 37.6797C435.732 48.5101 444.652 57.2891 455.647 57.2891C466.642 57.2891 475.562 48.5101 475.562 37.6797C475.633 34.4478 474.838 31.4107 473.438 28.7288ZM468.753 44.5218C465.847 49.0259 461.067 51.9828 455.682 51.9828C450.333 51.9828 445.6 49.0832 442.683 44.6479C442.137 43.8112 442.517 42.6995 443.454 42.3213C443.465 42.3213 443.477 42.3099 443.489 42.3099C444.225 42.0233 445.067 42.2526 445.506 42.8829C447.854 46.2524 451.531 48.4414 455.682 48.4414C459.869 48.4414 463.582 46.2065 465.919 42.7798C466.357 42.1379 467.2 41.8973 467.935 42.1953C467.947 42.1953 467.959 42.2067 467.97 42.2067C468.908 42.5849 469.299 43.6852 468.753 44.5218Z" fill="#8BC0E2"/>
<g clip-path="url(#clip2)">
<path d="M69.1035 104.461C69.1035 102.269 67.3226 100.49 65.1122 100.49H13.9981C11.7832 100.49 10 102.269 10 104.461V110.418H69.1035V104.461Z" fill="#176FA7"/>
<path d="M9.99988 110.418V142.361C9.99988 144.555 11.7831 146.325 13.998 146.325H65.1121C67.3202 146.325 69.1034 144.555 69.1034 142.361V110.418H9.99988Z" fill="#176FA7"/>
<path d="M22.4936 113.316C22.4936 114.637 21.4088 115.715 20.0731 115.715C18.7419 115.715 17.6593 114.635 17.6593 113.316V107.855C17.6593 106.526 18.7396 105.452 20.0731 105.452C21.4088 105.452 22.4936 106.526 22.4936 107.855V113.316Z" fill="white"/>
<path d="M60.3636 113.316C60.3636 114.637 59.2855 115.715 57.952 115.715C56.6186 115.715 55.5405 114.635 55.5405 113.316V107.855C55.5405 106.526 56.6186 105.452 57.952 105.452C59.2832 105.452 60.3636 106.526 60.3636 107.855V113.316Z" fill="white"/>
<path d="M27.8884 124.851H20.4008V128.916H27.8884V124.851Z" fill="white"/>
<path d="M27.8884 130.572H20.4008V134.638H27.8884V130.572Z" fill="white"/>
<path d="M27.8884 136.293H20.4008V140.359H27.8884V136.293Z" fill="white"/>
<path d="M37.7468 124.851H30.2592V128.916H37.7468V124.851Z" fill="white"/>
<path d="M37.7468 130.572H30.2592V134.638H37.7468V130.572Z" fill="white"/>
<path d="M37.7468 136.293H30.2592V140.359H37.7468V136.293Z" fill="white"/>
<path d="M48.2065 124.851H40.7189V128.916H48.2065V124.851Z" fill="white"/>
<path d="M48.2065 130.572H40.7189V134.638H48.2065V130.572Z" fill="white"/>
<path d="M48.2065 136.293H40.7189V140.359H48.2065V136.293Z" fill="white"/>
<path d="M58.0538 124.851H50.5662V128.916H58.0538V124.851Z" fill="white"/>
<path d="M48.2065 119.316H40.7189V123.381H48.2065V119.316Z" fill="white"/>
<path d="M58.0538 119.316H50.5662V123.381H58.0538V119.316Z" fill="white"/>
<path d="M58.0538 130.572H50.5662V134.638H58.0538V130.572Z" fill="white"/>
<rect x="14.2217" y="109.536" width="50.6601" height="2.41239" rx="1.20619" fill="white"/>
</g>
<g clip-path="url(#clip3)">
<path d="M150.6 137.239C150.979 137.05 173.728 125.082 173.728 125.082C174.509 124.67 174.811 123.701 174.398 122.922C173.985 122.142 173.014 121.842 172.233 122.254L149.562 134.166L124.48 128.778C122.997 128.455 122.059 127.008 122.372 125.527C122.695 124.046 124.146 123.111 125.63 123.423L149.127 128.433C149.819 128.555 150.276 128.5 150.8 128.221C151.325 127.943 173.728 116.186 173.728 116.186C174.509 115.774 174.811 114.806 174.398 114.026C173.985 113.247 173.014 112.946 172.233 113.358L149.584 125.26L124.48 119.894C122.997 119.571 122.059 118.123 122.372 116.643C122.695 115.162 124.146 114.227 125.63 114.539L148.279 119.315C149.004 119.437 149.305 119.237 149.528 119.103C150.6 118.591 172.323 107.224 172.323 107.224C173.885 106.411 173.751 105.476 172.021 105.142L149.506 100.611C147.777 100.277 145.066 100.633 143.492 101.412C143.492 101.412 122.361 111.889 122.193 112.022C120.732 112.824 119.616 114.227 119.237 115.975C118.768 118.135 119.56 120.272 121.1 121.653C120.185 122.465 119.515 123.556 119.237 124.837C118.768 127.03 119.571 129.19 121.156 130.559C120.218 131.372 119.515 132.485 119.237 133.788C118.545 136.994 120.598 140.145 123.811 140.835C123.811 140.835 148.547 146.157 149.183 146.268C149.83 146.368 150.209 146.346 150.722 146.068C151.235 145.789 173.728 133.977 173.728 133.977C174.509 133.565 174.811 132.597 174.398 131.817C173.985 131.038 173.014 130.737 172.233 131.149L149.562 143.073L124.48 137.696C122.997 137.373 122.059 135.925 122.372 134.445C122.695 132.964 124.146 132.029 125.63 132.34L136.329 134.634C136.329 134.623 148.993 137.339 149.328 137.395C149.897 137.484 150.231 137.428 150.6 137.239ZM148.669 105.988L154.304 107.124C155.788 107.424 156.033 109.428 154.661 110.074C154.36 110.219 154.014 110.263 153.679 110.197L148.045 109.061C146.561 108.76 146.315 106.756 147.687 106.111C147.989 105.966 148.335 105.921 148.669 105.988Z" fill="#176FA7"/>
</g>
<path fill-rule="evenodd" clip-rule="evenodd" d="M238.557 119.134L248.776 105.778C249.508 104.82 250.903 104.622 251.883 105.338C252.31 105.646 252.592 106.087 252.704 106.549L261.944 143.159C262.237 144.326 261.516 145.504 260.323 145.79C259.727 145.934 259.13 145.834 258.646 145.548L243.701 138.468L234.585 140.671C232.795 141.1 230.983 140.781 229.52 139.911C228.046 139.041 226.921 137.632 226.47 135.881L224.782 129.198C224.343 127.447 224.67 125.674 225.559 124.243C225.593 124.188 225.626 124.133 225.671 124.078C226.572 122.723 227.967 121.677 229.678 121.27L238.557 119.134ZM254.696 110.722L256.992 110.171L264.15 138.523L261.854 139.074L254.696 110.722ZM270.115 101.396C268.91 100.603 267.267 100.923 266.457 102.101C265.647 103.279 265.973 104.886 267.177 105.679C271.623 108.586 274.504 113.453 275.764 118.638C277.126 124.243 276.619 130.122 274.166 134.262C273.435 135.496 273.873 137.07 275.123 137.775C276.383 138.49 277.993 138.061 278.713 136.839C281.83 131.576 282.528 124.276 280.862 117.449C279.332 111.085 275.73 105.063 270.115 101.396ZM266.288 112.682C268.539 115.214 269.912 117.901 270.508 120.686C271.15 123.637 270.914 126.643 269.912 129.627C269.462 130.981 267.976 131.719 266.592 131.279C265.208 130.838 264.454 129.385 264.904 128.03C265.613 125.883 265.793 123.769 265.365 121.754C264.949 119.795 263.947 117.879 262.315 116.04C261.37 114.972 261.482 113.342 262.574 112.418C263.677 111.504 265.343 111.614 266.288 112.682ZM244.972 123.571L251.669 115.302C252.434 114.366 252.265 113.001 251.309 112.263C250.352 111.515 248.956 111.68 248.202 112.616L241.506 120.885C240.741 121.821 240.91 123.186 241.866 123.924C242.823 124.672 244.207 124.507 244.972 123.571ZM241.135 134.626L238.366 123.648L230.77 125.487C230.207 125.619 229.745 125.96 229.442 126.39C229.419 126.423 229.408 126.456 229.385 126.489C229.07 126.984 228.958 127.579 229.104 128.163L230.792 134.846C230.938 135.43 231.321 135.914 231.816 136.2C232.311 136.498 232.919 136.608 233.527 136.453L241.135 134.626Z" fill="#176FA7"/>
<path d="M356.296 140.211L355.105 137.13L353.399 137.765L354.602 140.846C353.706 141.576 353.313 142.811 353.755 143.928C354.32 145.363 355.928 146.057 357.401 145.528C358.874 144.986 359.598 143.41 359.033 141.975C358.591 140.846 357.487 140.164 356.296 140.211Z" fill="#176FA7"/>
<path d="M374.93 135.624C374.905 135.542 374.88 135.459 374.819 135.401C374.402 134.495 373.371 133.883 371.787 133.589C371.443 133.519 371.063 133.483 370.67 133.46C367.638 130.461 366.288 125.568 361.979 115.253C356.419 102.044 343.223 104.267 341.443 104.749C341.234 102.926 340.743 101.221 340.08 99.4449C339.503 97.9159 338.386 94.5167 336.116 95.0578C333.575 95.6576 334.79 99.1391 335.453 100.609C336.152 102.127 337.098 103.526 338.08 104.879C338.35 105.255 338.681 105.737 339.062 106.173C335.44 108.843 329.119 115.394 332.912 126.038C336.68 136.553 339 141.093 338.791 145.292C338.509 145.551 338.239 145.833 338.03 146.116C337.036 147.374 336.68 148.491 336.999 149.444C337.024 149.491 337.024 149.515 337.024 149.55C337.036 149.574 337.036 149.597 337.048 149.609C338.534 153.396 349.09 151.844 358.26 148.444C367.356 145.057 376.231 139.458 374.93 135.624ZM335.342 122.957C334.962 118.464 335.895 114.559 337.945 111.548C338.423 110.842 339.368 110.548 340.191 110.842C340.215 110.854 340.24 110.866 340.265 110.866C341.382 111.277 341.873 112.559 341.21 113.512C339.602 115.841 338.89 118.981 339.184 122.651C339.54 126.85 341.161 131.296 343.837 135.459C344.377 136.306 344.094 137.412 343.211 137.941C343.198 137.953 343.186 137.965 343.161 137.965C342.265 138.506 341.075 138.235 340.522 137.377C337.564 132.719 335.747 127.72 335.342 122.957ZM357.511 146.516C348.072 150.021 340.62 150.22 339.872 148.315C339.872 148.292 339.872 148.268 339.872 148.256C339.859 148.221 339.847 148.197 339.835 148.162C339.602 147.515 340.117 146.668 340.584 146.08C342.621 143.493 347.961 140.317 354.209 138.012C360.457 135.706 366.607 134.601 369.872 135.224C370.621 135.365 371.578 135.671 371.836 136.295C371.861 136.33 371.861 136.353 371.861 136.377C372.573 138.388 366.877 143.034 357.511 146.516Z" fill="#176FA7"/>
<path d="M479.096 122.668C479.096 135.367 468.611 145.693 455.73 145.693V147.538C469.643 147.538 480.97 136.387 480.97 122.679H479.096V122.668Z" fill="#176FA7"/>
<path d="M432.352 122.668H430.478C430.478 125.992 431.142 129.155 432.352 132.054H434.38C433.075 129.189 432.352 126.015 432.352 122.668Z" fill="#176FA7"/>
<path d="M455.718 97.8098C441.805 97.8098 430.478 108.961 430.478 122.668H432.352C432.352 109.97 442.837 99.6435 455.718 99.6435C468.611 99.6435 479.084 109.97 479.084 122.668H480.958C480.958 108.961 469.643 97.8098 455.718 97.8098Z" fill="#176FA7"/>
<path d="M432.352 113.282C428.319 113.282 425.057 116.491 425.057 120.457V124.881C425.057 128.812 428.26 131.998 432.245 132.055H432.352V113.282V113.282Z" fill="#176FA7"/>
<path d="M486.379 124.88V120.456C486.379 116.491 483.117 113.27 479.084 113.27V132.054C483.117 132.066 486.379 128.845 486.379 124.88Z" fill="#176FA7"/>
<path d="M460.961 146.427C460.961 147.848 459.786 149.005 458.339 149.005H453.109C451.662 149.005 450.487 147.848 450.487 146.427C450.487 145.005 451.662 143.848 453.109 143.848H458.339C459.786 143.848 460.961 145.005 460.961 146.427Z" fill="#176FA7"/>
<path d="M473.438 113.729V120.135C473.438 120.651 473.011 121.075 472.478 121.075C471.944 121.075 471.517 120.651 471.517 120.135V110.761C470.829 109.878 470.07 109.053 469.24 108.296V120.135C469.24 120.651 468.813 121.075 468.279 121.075C467.745 121.075 467.318 120.651 467.318 120.135V106.749C466.595 106.233 465.835 105.775 465.041 105.351V120.124C465.041 120.64 464.614 121.064 464.08 121.064C463.546 121.064 463.119 120.64 463.119 120.124V104.48C462.384 104.182 461.625 103.941 460.842 103.735V120.135C460.842 120.651 460.415 121.075 459.881 121.075C459.347 121.075 458.92 120.651 458.92 120.135V103.322C458.173 103.208 457.414 103.116 456.643 103.082V120.124C456.643 120.64 456.216 121.064 455.682 121.064C455.149 121.064 454.722 120.64 454.722 120.124V103.082C453.951 103.116 453.192 103.196 452.444 103.322V120.124C452.444 120.64 452.017 121.064 451.484 121.064C450.962 121.064 450.523 120.64 450.523 120.124V103.735C449.74 103.941 448.981 104.182 448.246 104.48V120.135C448.246 120.651 447.819 121.075 447.285 121.075C446.751 121.075 446.324 120.651 446.324 120.135V105.362C445.529 105.775 444.77 106.245 444.047 106.761V120.135C444.047 120.651 443.62 121.075 443.086 121.075C442.552 121.075 442.125 120.651 442.125 120.135V108.285C441.295 109.041 440.536 109.867 439.848 110.749V120.124C439.848 120.64 439.421 121.064 438.887 121.064C438.353 121.064 437.926 120.64 437.926 120.124V113.74C436.527 116.422 435.732 119.459 435.732 122.68C435.732 133.51 444.652 142.289 455.647 142.289C466.642 142.289 475.562 133.51 475.562 122.68C475.633 119.448 474.838 116.411 473.438 113.729ZM468.753 129.522C465.847 134.026 461.067 136.983 455.682 136.983C450.333 136.983 445.6 134.083 442.683 129.648C442.137 128.811 442.517 127.7 443.454 127.321C443.465 127.321 443.477 127.31 443.489 127.31C444.225 127.023 445.067 127.253 445.506 127.883C447.854 131.252 451.531 133.441 455.682 133.441C459.869 133.441 463.582 131.207 465.919 127.78C466.357 127.138 467.2 126.897 467.935 127.195C467.947 127.195 467.959 127.207 467.97 127.207C468.908 127.585 469.299 128.685 468.753 129.522Z" fill="#176FA7"/>
<defs>
<clipPath id="clip0">
<rect width="59.1035" height="45.8354" fill="white" transform="translate(10 15.4897)"/>
</clipPath>
<clipPath id="clip1">
<rect width="55.4849" height="45.8354" fill="white" transform="translate(119.104 15.4897)"/>
</clipPath>
<clipPath id="clip2">
<rect width="59.1035" height="45.8354" fill="white" transform="translate(10 100.49)"/>
</clipPath>
<clipPath id="clip3">
<rect width="55.4849" height="45.8354" fill="white" transform="translate(119.104 100.49)"/>
</clipPath>
</defs>
</svg>
