<svg width="194" height="112" viewBox="0 0 194 112" fill="none" xmlns="http://www.w3.org/2000/svg">
<rect x="0.522461" width="193.379" height="111.155" fill="#84B0E6"/>
<rect x="0.522461" width="193.379" height="30.4533" fill="#B5D6FF"/>
<rect x="0.522461" y="80.7013" width="193.379" height="30.4533" fill="#B5D6FF"/>
<rect x="43.1572" y="10.6586" width="109.632" height="91.36" rx="10.6587" fill="#176FA7"/>
<rect x="49.248" y="16.7493" width="10.6587" height="13.704" rx="1.52267" fill="white"/>
<rect x="49.248" y="82.2239" width="10.6587" height="13.704" rx="1.52267" fill="white"/>
<rect x="136.039" y="16.7493" width="10.6587" height="13.704" rx="1.52267" fill="white"/>
<rect x="136.039" y="82.2239" width="10.6587" height="13.704" rx="1.52267" fill="white"/>
<rect x="69.043" y="16.7493" width="13.704" height="13.704" rx="1.52267" fill="white"/>
<rect x="69.043" y="82.2239" width="13.704" height="13.704" rx="1.52267" fill="white"/>
<rect x="91.8828" y="16.7493" width="13.704" height="13.704" rx="1.52267" fill="white"/>
<rect x="113.199" y="16.7493" width="13.704" height="13.704" rx="1.52267" fill="white"/>
<rect x="91.8828" y="82.2239" width="13.704" height="13.704" rx="1.52267" fill="white"/>
<rect x="113.199" y="82.2239" width="13.704" height="13.704" rx="1.52267" fill="white"/>
<path d="M118.529 54.2586C119.545 54.8447 119.545 56.3099 118.529 56.8959L89.9795 73.3793C88.9644 73.9654 87.6955 73.2328 87.6955 72.0606L87.6955 39.0939C87.6955 37.9218 88.9644 37.1892 89.9795 37.7753L118.529 54.2586Z" fill="white"/>
</svg>
