<svg width="82" height="158" viewBox="0 0 82 158" fill="none" xmlns="http://www.w3.org/2000/svg">
<path d="M64.0961 35.668C64.0961 48.3665 53.6109 58.6927 40.7297 58.6927V60.5378C54.6428 60.5378 65.9701 49.3865 65.9701 35.6794H64.0961V35.668Z" fill="#8BC0E2"/>
<path d="M17.3517 35.668H15.4777C15.4777 38.9916 16.1419 42.1548 17.3517 45.0543H19.38C18.0752 42.1891 17.3517 39.0145 17.3517 35.668Z" fill="#8BC0E2"/>
<path d="M40.718 10.8098C26.805 10.8098 15.4777 21.9611 15.4777 35.6682H17.3517C17.3517 22.9697 27.8369 12.6435 40.718 12.6435C53.611 12.6435 64.0844 22.9697 64.0844 35.6682H65.9584C65.9584 21.9611 54.643 10.8098 40.718 10.8098Z" fill="#8BC0E2"/>
<path d="M17.3517 26.2822C13.3189 26.2822 10.0571 29.4912 10.0571 33.4567V37.8805C10.0571 41.8116 13.2596 44.9977 17.2449 45.055H17.3517V26.2822V26.2822Z" fill="#8BC0E2"/>
<path d="M71.3788 37.88V33.4562C71.3788 29.4907 68.117 26.2703 64.0842 26.2703V45.0545C68.117 45.0659 71.3788 41.8455 71.3788 37.88Z" fill="#8BC0E2"/>
<path d="M45.9606 59.4266C45.9606 60.8477 44.7864 62.0052 43.3393 62.0052H38.1086C36.6616 62.0052 35.4873 60.8477 35.4873 59.4266C35.4873 58.0054 36.6616 56.8479 38.1086 56.8479H43.3393C44.7864 56.8479 45.9606 58.0054 45.9606 59.4266Z" fill="#8BC0E2"/>
<path d="M58.4384 26.7288V33.1354C58.4384 33.6512 58.0114 34.0752 57.4777 34.0752C56.944 34.0752 56.5169 33.6512 56.5169 33.1354V23.7605C55.829 22.878 55.0699 22.0528 54.2396 21.2964V33.1354C54.2396 33.6512 53.8126 34.0752 53.2789 34.0752C52.7451 34.0752 52.3181 33.6512 52.3181 33.1354V19.7492C51.5946 19.2335 50.8355 18.7751 50.0408 18.351V33.124C50.0408 33.6397 49.6138 34.0637 49.0801 34.0637C48.5463 34.0637 48.1193 33.6397 48.1193 33.124V17.48C47.3839 17.182 46.6248 16.9413 45.842 16.7351V33.1354C45.842 33.6512 45.415 34.0752 44.8812 34.0752C44.3475 34.0752 43.9205 33.6512 43.9205 33.1354V16.3225C43.1732 16.2079 42.4141 16.1162 41.6431 16.0818V33.124C41.6431 33.6397 41.2162 34.0637 40.6824 34.0637C40.1487 34.0637 39.7217 33.6397 39.7217 33.124V16.0818C38.9507 16.1162 38.1916 16.1964 37.4443 16.3225V33.124C37.4443 33.6397 37.0173 34.0637 36.4836 34.0637C35.9617 34.0637 35.5228 33.6397 35.5228 33.124V16.7351C34.74 16.9413 33.9809 17.182 33.2455 17.48V33.1354C33.2455 33.6512 32.8185 34.0752 32.2848 34.0752C31.751 34.0752 31.324 33.6512 31.324 33.1354V18.3625C30.5293 18.7751 29.7702 19.245 29.0467 19.7607V33.1354C29.0467 33.6512 28.6197 34.0752 28.0859 34.0752C27.5522 34.0752 27.1252 33.6512 27.1252 33.1354V21.285C26.2949 22.0414 25.5358 22.8666 24.8479 23.749V33.124C24.8479 33.6397 24.4209 34.0637 23.8871 34.0637C23.3534 34.0637 22.9264 33.6397 22.9264 33.124V26.7403C21.5267 29.4221 20.7321 32.4592 20.7321 35.6797C20.7321 46.5101 29.6516 55.2891 40.6468 55.2891C51.642 55.2891 60.5616 46.5101 60.5616 35.6797C60.6328 32.4478 59.8381 29.4107 58.4384 26.7288ZM53.7533 42.5218C50.8474 47.0259 46.0673 49.9828 40.6824 49.9828C35.3331 49.9828 30.6005 47.0832 27.6827 42.6479C27.137 41.8112 27.5166 40.6995 28.4536 40.3213C28.4655 40.3213 28.4773 40.3099 28.4892 40.3099C29.2246 40.0233 30.0667 40.2526 30.5056 40.8829C32.8541 44.2524 36.531 46.4414 40.6824 46.4414C44.8694 46.4414 48.5819 44.2065 50.9185 40.7798C51.3574 40.1379 52.1995 39.8973 52.9349 40.1953C52.9468 40.1953 52.9586 40.2067 52.9705 40.2067C53.9075 40.5849 54.2989 41.6852 53.7533 42.5218Z" fill="#8BC0E2"/>
<path d="M64.0961 120.864C64.0961 133.562 53.6109 143.888 40.7297 143.888V145.733C54.6428 145.733 65.9701 134.582 65.9701 120.875H64.0961V120.864Z" fill="#176FA7"/>
<path d="M17.3517 120.864H15.4777C15.4777 124.187 16.1419 127.35 17.3517 130.25H19.38C18.0752 127.385 17.3517 124.21 17.3517 120.864Z" fill="#176FA7"/>
<path d="M40.718 96.0054C26.805 96.0054 15.4777 107.157 15.4777 120.864H17.3517C17.3517 108.165 27.8369 97.8391 40.718 97.8391C53.611 97.8391 64.0844 108.165 64.0844 120.864H65.9584C65.9584 107.157 54.643 96.0054 40.718 96.0054Z" fill="#176FA7"/>
<path d="M17.3517 111.478C13.3189 111.478 10.0571 114.687 10.0571 118.652V123.076C10.0571 127.007 13.2596 130.193 17.2449 130.251H17.3517V111.478V111.478Z" fill="#176FA7"/>
<path d="M71.3788 123.076V118.652C71.3788 114.686 68.117 111.466 64.0842 111.466V130.25C68.117 130.261 71.3788 127.041 71.3788 123.076Z" fill="#176FA7"/>
<path d="M45.9606 144.622C45.9606 146.043 44.7864 147.201 43.3393 147.201H38.1086C36.6616 147.201 35.4873 146.043 35.4873 144.622C35.4873 143.201 36.6616 142.043 38.1086 142.043H43.3393C44.7864 142.043 45.9606 143.201 45.9606 144.622Z" fill="#176FA7"/>
<path d="M58.4384 111.924V118.331C58.4384 118.847 58.0114 119.271 57.4777 119.271C56.944 119.271 56.5169 118.847 56.5169 118.331V108.956C55.829 108.074 55.0699 107.248 54.2396 106.492V118.331C54.2396 118.847 53.8126 119.271 53.2789 119.271C52.7451 119.271 52.3181 118.847 52.3181 118.331V104.945C51.5946 104.429 50.8355 103.971 50.0408 103.547V118.32C50.0408 118.835 49.6138 119.259 49.0801 119.259C48.5463 119.259 48.1193 118.835 48.1193 118.32V102.676C47.3839 102.378 46.6248 102.137 45.842 101.931V118.331C45.842 118.847 45.415 119.271 44.8812 119.271C44.3475 119.271 43.9205 118.847 43.9205 118.331V101.518C43.1732 101.403 42.4141 101.312 41.6431 101.277V118.32C41.6431 118.835 41.2162 119.259 40.6824 119.259C40.1487 119.259 39.7217 118.835 39.7217 118.32V101.277C38.9507 101.312 38.1916 101.392 37.4443 101.518V118.32C37.4443 118.835 37.0173 119.259 36.4836 119.259C35.9617 119.259 35.5228 118.835 35.5228 118.32V101.931C34.74 102.137 33.9809 102.378 33.2455 102.676V118.331C33.2455 118.847 32.8185 119.271 32.2848 119.271C31.751 119.271 31.324 118.847 31.324 118.331V103.558C30.5293 103.971 29.7702 104.441 29.0467 104.956V118.331C29.0467 118.847 28.6197 119.271 28.0859 119.271C27.5522 119.271 27.1252 118.847 27.1252 118.331V106.481C26.2949 107.237 25.5358 108.062 24.8479 108.945V118.32C24.8479 118.835 24.4209 119.259 23.8871 119.259C23.3534 119.259 22.9264 118.835 22.9264 118.32V111.936C21.5267 114.618 20.7321 117.655 20.7321 120.875C20.7321 131.706 29.6516 140.485 40.6468 140.485C51.642 140.485 60.5616 131.706 60.5616 120.875C60.6328 117.643 59.8381 114.606 58.4384 111.924ZM53.7533 127.717C50.8474 132.221 46.0673 135.178 40.6824 135.178C35.3331 135.178 30.6005 132.279 27.6827 127.843C27.137 127.007 27.5166 125.895 28.4536 125.517C28.4655 125.517 28.4773 125.505 28.4892 125.505C29.2246 125.219 30.0667 125.448 30.5056 126.078C32.8541 129.448 36.531 131.637 40.6824 131.637C44.8694 131.637 48.5819 129.402 50.9185 125.975C51.3574 125.334 52.1995 125.093 52.9349 125.391C52.9468 125.391 52.9586 125.402 52.9705 125.402C53.9075 125.78 54.2989 126.881 53.7533 127.717Z" fill="#176FA7"/>
</svg>
