<svg width="111" height="230" viewBox="0 0 111 230" fill="none" xmlns="http://www.w3.org/2000/svg">
<g clip-path="url(#clip0)">
<path d="M96.0549 53.4121C96.0549 75.9839 77.4173 94.3387 54.521 94.3387V97.6185C79.2516 97.6185 99.386 77.7969 99.386 53.4325H96.0549V53.4121Z" fill="#8BC0E2"/>
<path d="M12.9661 53.4121H9.63501C9.63501 59.3199 10.8157 64.9424 12.9661 70.0965H16.5714C14.2522 65.0036 12.9661 59.3606 12.9661 53.4121Z" fill="#8BC0E2"/>
<path d="M54.5 9.22607C29.7694 9.22607 9.63501 29.0477 9.63501 53.4121H12.9662C12.9662 30.8404 31.6037 12.4855 54.5 12.4855C77.4174 12.4855 96.0338 30.8404 96.0338 53.4121H99.365C99.365 29.0477 79.2516 9.22607 54.5 9.22607Z" fill="#8BC0E2"/>
<path d="M12.9662 36.7278C5.79787 36.7278 0 42.4318 0 49.4804V57.3439C0 64.3313 5.69246 69.9946 12.7764 70.0965H12.9662V36.7278V36.7278Z" fill="#8BC0E2"/>
<path d="M109 57.3437V49.4803C109 42.4317 103.202 36.7073 96.0339 36.7073V70.0963C103.202 70.1167 109 64.3923 109 57.3437Z" fill="#8BC0E2"/>
<path d="M63.8186 95.6424C63.8186 98.1685 61.7313 100.226 59.1592 100.226H49.8615C47.2894 100.226 45.2021 98.1685 45.2021 95.6424C45.2021 93.1164 47.2894 91.0588 49.8615 91.0588H59.1592C61.7313 91.0588 63.8186 93.1164 63.8186 95.6424Z" fill="#8BC0E2"/>
<path d="M85.9983 37.5222V48.9099C85.9983 49.8266 85.2393 50.5804 84.2905 50.5804C83.3418 50.5804 82.5828 49.8266 82.5828 48.9099V32.2459C81.36 30.6773 80.0106 29.2105 78.5348 27.866V48.9099C78.5348 49.8266 77.7758 50.5804 76.8271 50.5804C75.8783 50.5804 75.1194 49.8266 75.1194 48.9099V25.1158C73.8333 24.1991 72.484 23.3843 71.0714 22.6305V48.8895C71.0714 49.8062 70.3124 50.56 69.3636 50.56C68.4149 50.56 67.6559 49.8062 67.6559 48.8895V21.0823C66.3488 20.5526 64.9994 20.1248 63.6079 19.7581V48.9099C63.6079 49.8266 62.8489 50.5804 61.9002 50.5804C60.9515 50.5804 60.1925 49.8266 60.1925 48.9099V19.0247C58.8642 18.821 57.5149 18.658 56.1445 18.5969V48.8895C56.1445 49.8062 55.3855 50.56 54.4368 50.56C53.488 50.56 52.729 49.8062 52.729 48.8895V18.5969C51.3586 18.658 50.0093 18.8006 48.681 19.0247V48.8895C48.681 49.8062 47.9221 50.56 46.9733 50.56C46.0457 50.56 45.2656 49.8062 45.2656 48.8895V19.7581C43.8741 20.1248 42.5248 20.5526 41.2176 21.0823V48.9099C41.2176 49.8266 40.4586 50.5804 39.5099 50.5804C38.5611 50.5804 37.8021 49.8266 37.8021 48.9099V22.6509C36.3896 23.3843 35.0402 24.2195 33.7542 25.1362V48.9099C33.7542 49.8266 32.9952 50.5804 32.0464 50.5804C31.0977 50.5804 30.3387 49.8266 30.3387 48.9099V27.8456C28.8629 29.1902 27.5135 30.6569 26.2907 32.2255V48.8895C26.2907 49.8062 25.5317 50.56 24.583 50.56C23.6342 50.56 22.8752 49.8062 22.8752 48.8895V37.5425C20.3874 42.3095 18.9749 47.708 18.9749 53.4324C18.9749 72.6836 34.8294 88.2882 54.3735 88.2882C73.9176 88.2882 89.7722 72.6836 89.7722 53.4324C89.8987 47.6876 88.4861 42.2891 85.9983 37.5222ZM77.6704 65.5942C72.505 73.6003 64.0085 78.8562 54.4368 78.8562C44.9282 78.8562 36.5161 73.7021 31.3296 65.8183C30.3598 64.3312 31.0344 62.3552 32.7 61.6829C32.7211 61.6829 32.7422 61.6625 32.7633 61.6625C34.0704 61.1532 35.5673 61.5607 36.3474 62.6811C40.5219 68.6704 47.0576 72.5613 54.4368 72.5613C61.8791 72.5613 68.4782 68.5889 72.6315 62.4978C73.4116 61.3569 74.9085 60.9291 76.2157 61.4588C76.2368 61.4588 76.2578 61.4792 76.2789 61.4792C77.9445 62.1514 78.6402 64.1071 77.6704 65.5942Z" fill="#8BC0E2"/>
</g>
<path d="M96.0549 174.186C96.0549 196.758 77.4173 215.113 54.521 215.113V218.392C79.2516 218.392 99.386 198.571 99.386 174.206H96.0549V174.186Z" fill="#176FA7"/>
<path d="M12.9661 174.186H9.63501C9.63501 180.094 10.8157 185.716 12.9661 190.87H16.5714C14.2522 185.777 12.9661 180.135 12.9661 174.186Z" fill="#176FA7"/>
<path d="M54.5 130C29.7694 130 9.63501 149.822 9.63501 174.186H12.9662C12.9662 151.614 31.6037 133.259 54.5 133.259C77.4174 133.259 96.0338 151.614 96.0338 174.186H99.365C99.365 149.822 79.2516 130 54.5 130Z" fill="#176FA7"/>
<path d="M12.9662 157.502C5.79787 157.502 0 163.206 0 170.254V178.118C0 185.105 5.69246 190.769 12.7764 190.87H12.9662V157.502V157.502Z" fill="#176FA7"/>
<path d="M109 178.118V170.254C109 163.206 103.202 157.481 96.0339 157.481V190.87C103.202 190.891 109 185.166 109 178.118Z" fill="#176FA7"/>
<path d="M63.8186 216.416C63.8186 218.942 61.7313 221 59.1592 221H49.8615C47.2894 221 45.2021 218.942 45.2021 216.416C45.2021 213.89 47.2894 211.833 49.8615 211.833H59.1592C61.7313 211.833 63.8186 213.89 63.8186 216.416Z" fill="#176FA7"/>
<path d="M85.9983 158.296V169.684C85.9983 170.601 85.2393 171.354 84.2905 171.354C83.3418 171.354 82.5828 170.601 82.5828 169.684V153.02C81.36 151.451 80.0106 149.984 78.5348 148.64V169.684C78.5348 170.601 77.7758 171.354 76.8271 171.354C75.8783 171.354 75.1194 170.601 75.1194 169.684V145.89C73.8333 144.973 72.484 144.158 71.0714 143.404V169.663C71.0714 170.58 70.3124 171.334 69.3636 171.334C68.4149 171.334 67.6559 170.58 67.6559 169.663V141.856C66.3488 141.327 64.9994 140.899 63.6079 140.532V169.684C63.6079 170.601 62.8489 171.354 61.9002 171.354C60.9515 171.354 60.1925 170.601 60.1925 169.684V139.799C58.8642 139.595 57.5149 139.432 56.1445 139.371V169.663C56.1445 170.58 55.3855 171.334 54.4368 171.334C53.488 171.334 52.729 170.58 52.729 169.663V139.371C51.3586 139.432 50.0093 139.575 48.681 139.799V169.663C48.681 170.58 47.9221 171.334 46.9733 171.334C46.0457 171.334 45.2656 170.58 45.2656 169.663V140.532C43.8741 140.899 42.5248 141.327 41.2176 141.856V169.684C41.2176 170.601 40.4586 171.354 39.5099 171.354C38.5611 171.354 37.8021 170.601 37.8021 169.684V143.425C36.3896 144.158 35.0402 144.993 33.7542 145.91V169.684C33.7542 170.601 32.9952 171.354 32.0464 171.354C31.0977 171.354 30.3387 170.601 30.3387 169.684V148.62C28.8629 149.964 27.5135 151.431 26.2907 152.999V169.663C26.2907 170.58 25.5317 171.334 24.583 171.334C23.6342 171.334 22.8752 170.58 22.8752 169.663V158.316C20.3874 163.083 18.9749 168.482 18.9749 174.206C18.9749 193.457 34.8294 209.062 54.3735 209.062C73.9176 209.062 89.7722 193.457 89.7722 174.206C89.8987 168.462 88.4861 163.063 85.9983 158.296ZM77.6704 186.368C72.505 194.374 64.0085 199.63 54.4368 199.63C44.9282 199.63 36.5161 194.476 31.3296 186.592C30.3598 185.105 31.0344 183.129 32.7 182.457C32.7211 182.457 32.7422 182.436 32.7633 182.436C34.0704 181.927 35.5673 182.335 36.3474 183.455C40.5219 189.444 47.0576 193.335 54.4368 193.335C61.8791 193.335 68.4782 189.363 72.6315 183.272C73.4116 182.131 74.9085 181.703 76.2157 182.233C76.2368 182.233 76.2578 182.253 76.2789 182.253C77.9445 182.925 78.6402 184.881 77.6704 186.368Z" fill="#176FA7"/>
<defs>
<clipPath id="clip0">
<rect width="109" height="91" fill="white" transform="translate(0 9.22607)"/>
</clipPath>
</defs>
</svg>
