<svg width="322" height="68" viewBox="0 0 322 68" fill="none" xmlns="http://www.w3.org/2000/svg">
<path fill-rule="evenodd" clip-rule="evenodd" d="M279.881 13.09C279.881 13.7534 279.34 14.2841 278.664 14.2841H264.925C264.294 14.2841 263.709 13.7534 263.709 13.09V4.68765C263.709 4.02431 264.249 3.49363 264.925 3.49363H278.664C279.34 3.49363 279.881 4.02431 279.881 4.68765V13.09ZM281.052 0H262.627C261.051 0 259.789 1.23825 259.789 2.78606V15.0359C259.789 16.5837 261.051 17.8219 262.627 17.8219H267.943C267.087 18.5295 266.456 19.3697 266.006 20.3426H277.718C277.223 19.3697 276.592 18.4853 275.781 17.8219H281.097C282.674 17.8219 283.935 16.5837 283.935 15.0359V2.78606C283.89 1.23825 282.629 0 281.052 0Z" fill="#1870A7"/>
<path fill-rule="evenodd" clip-rule="evenodd" d="M277.628 43.0733V64.3447H267.673V43.0733L259.789 43.0291V35.4227L283.935 35.467V43.0733H277.628Z" fill="#2E2624"/>
<path fill-rule="evenodd" clip-rule="evenodd" d="M322 35.467L311.414 64.3889H300.737L289.701 35.467H300.737L306.143 51.2546C306.503 52.1833 306.819 53.112 307.134 53.9964L313.441 35.4227H322V35.467Z" fill="#2E2624"/>
<path fill-rule="evenodd" clip-rule="evenodd" d="M107.258 22.4653V64.3446H88.6986V22.4653H74.5087V8.53503H121.448V22.4653H107.258Z" fill="#176FA7"/>
<path fill-rule="evenodd" clip-rule="evenodd" d="M190.056 64.3446H167.532L155.685 43.2944L148.747 51.5199V64.3446H129.106V8.53503H148.747V31.3984L167.217 8.53503H186.002L169.064 28.9219L190.056 64.3446Z" fill="#176FA7"/>
<path fill-rule="evenodd" clip-rule="evenodd" d="M214.201 51.4757H224.202C226.679 51.4757 228.796 51.4315 229.968 50.4143C231.094 49.3972 231.724 48.2474 231.724 46.9649C231.724 45.6825 231.139 44.4884 230.013 43.3829C228.886 42.3215 226.814 41.7908 223.841 41.7908H214.246V51.4757H214.201ZM214.201 30.0275H223.706C226.094 30.0275 228.076 29.541 229.022 28.5239C230.013 27.5068 230.508 26.1358 230.508 24.986C230.508 21.8904 228.211 20.3426 223.661 20.3426H214.201V30.0275ZM195.641 64.3446V8.53503H229.517C236.59 8.53503 241.725 10.0386 244.968 13.0016C248.212 15.9645 249.834 19.5024 249.834 23.3056C249.834 26.0916 248.888 28.5681 246.996 30.8235C245.104 33.0789 242.311 34.6267 238.572 35.4669C247.221 37.1916 251.59 41.5255 251.59 48.4243C251.59 52.5813 250.059 56.2518 246.996 59.4801C243.932 62.7084 237.4 64.3446 227.4 64.3446H195.641Z" fill="#176FA7"/>
<path fill-rule="evenodd" clip-rule="evenodd" d="M176.09 40.7737C171 42.9406 166.81 47.4514 164.333 55.8538C163.026 52.537 160.819 49.2203 158.206 47.8052L167.531 64.3446H190.01L176.09 40.7737ZM153.521 45.8594C151.584 45.3287 149.917 45.1076 149.287 44.4884C145.998 42.3215 144.917 38.0319 142.755 36.9705C138.61 33.9191 132.529 32.8135 129.105 32.6809V64.3446H148.746V51.4757L153.521 45.8594ZM107.257 28.3912C106.762 27.949 106.176 27.5952 105.636 27.2856C102.347 25.1629 97.9776 25.1629 96.8964 24.0573C93.608 21.8904 92.5268 17.6008 90.3645 16.5394C85.9949 13.3111 79.463 12.2498 76.1746 12.2498C75.634 12.2498 75.0934 12.2498 74.5529 12.294V22.4653H88.7428V64.3446H107.302V28.3912H107.257ZM214.2 21.9788C206.362 22.3769 199.425 25.8705 195.641 36.3514V64.3004H227.444C237.445 64.3004 243.977 62.6642 247.04 59.4359C250.103 56.2076 251.635 52.4928 251.635 48.3801C251.635 41.4813 247.31 37.1474 238.616 35.4227C239.157 35.29 239.742 35.1573 240.283 34.9805C238.571 34.5382 237.129 34.2729 236.589 33.7422C233.436 31.7079 232.309 27.6836 230.327 26.4012C230.102 27.153 229.697 27.9048 229.066 28.5239C228.075 29.541 226.093 30.0275 223.75 30.0275H214.245V21.9788H214.2ZM214.2 51.4757V41.835H223.795C226.814 41.835 228.841 42.3657 229.967 43.4271C231.093 44.4884 231.679 45.7267 231.679 47.0092C231.679 48.2916 231.093 49.4414 229.922 50.4586C228.751 51.4757 226.633 51.5199 224.156 51.5199H214.2V51.4757Z" fill="#247EB0"/>
<path d="M29.5962 25.6936V27.5952H22.794C24.9563 28.8777 26.7582 30.1159 28.2898 31.3542L26.578 32.9904C26.0374 32.504 25.4518 32.0175 24.8211 31.5311C21.5327 32.0175 16.0819 32.504 8.64907 32.902L8.33374 30.6908C9.32478 30.6466 10.3158 30.6466 11.2618 30.6024C12.1628 29.6295 12.8835 28.6124 13.4692 27.551H6.84717V25.6936H29.5962ZM27.9294 12.0287V13.8418H19.2803V14.9474H29.371V20.5195H27.1186V16.8048H19.2803V21.7578H16.9829V16.8048H9.32478V20.6522H7.07241V14.9474H16.9829V13.8418H8.42383V12.0287H27.9294ZM27.524 22.7307V24.5438H8.82926V22.7307H27.524ZM16.0819 17.6892V19.2371H10.2257V17.6892H16.0819ZM16.0819 20.21V21.7578H10.2257V20.21H16.0819ZM20.4515 28.7008L21.7129 27.5952H16.172C15.6765 28.6566 15.0008 29.6295 14.1449 30.5582C17.1631 30.4255 20.0011 30.2486 22.5237 29.9833C21.8931 29.541 21.1723 29.143 20.4515 28.7008ZM26.2627 17.6892V19.2371H20.1812V17.6892H26.2627ZM26.2627 20.21V21.7578H20.1812V20.21H26.2627Z" fill="#A43029"/>
<path d="M40.6777 29.4526C38.4254 30.2486 35.9027 30.912 33.1548 31.3542L32.8395 29.0546C35.227 28.8777 37.8398 28.2586 40.6777 27.2414V29.4526ZM38.4254 14.9474H40.948V16.849H33.0197V14.9474H36.1279C35.8126 14.1514 35.4072 13.3111 34.9567 12.4267L37.119 11.6749C37.6145 12.6036 38.0199 13.7092 38.4254 14.9474ZM36.5334 26.9761L34.4161 27.4183C34.1008 24.4111 33.7404 21.4924 33.335 18.7064L35.272 18.1757C35.7225 20.7406 36.173 23.7036 36.5334 26.9761ZM40.3624 18.1757C40.2723 21.4482 39.8669 24.4996 39.1011 27.4183L37.0289 26.9761C37.8848 23.9689 38.2902 20.9617 38.2902 18.0872L40.3624 18.1757ZM55.5434 18.9717V20.9175H49.2818C49.1467 21.5809 48.9214 22.2442 48.7413 22.8191H54.8677V30.4255C54.8677 31.1773 54.6875 31.7522 54.2821 32.1944C53.9217 32.5482 53.4262 32.7251 52.7955 32.7251H51.5342L51.0387 30.6024L52.0297 30.6908C52.4802 30.6466 52.7054 30.3371 52.7054 29.7622V24.6765H50.8585V32.1944H48.7863V24.6765H47.3448V32.1944H45.2726V24.6765H43.6058V32.9462H41.4436V22.8191H46.2636C46.5339 22.2 46.7141 21.5809 46.8943 20.9175H41.2183V18.9717H55.5434ZM43.8761 12.4709V15.3896H47.0294V11.4095H49.2818V15.4339H52.4352V12.4709H54.6875V17.247H41.6688V12.4709H43.8761Z" fill="#A43029"/>
<path d="M11.262 46.4351C11.262 46.5677 11.1719 46.7004 11.0818 46.7889C10.7215 46.9215 10.5413 47.0542 10.5413 47.1426V53.157C12.9738 52.8474 15.001 52.3167 16.5326 51.565L16.4875 47.7618C16.4875 46.612 16.4425 45.4179 16.3975 44.2239C17.2083 44.3124 18.0192 44.4893 18.785 44.6219C19.9112 43.7375 20.8572 42.853 21.7131 42.057H11.6675C10.5413 42.1012 9.64032 42.1454 8.87452 42.2339C8.73937 41.8801 8.55918 41.4821 8.42404 41.0841C9.46013 41.261 10.9467 41.3936 12.9738 41.3936H21.5779C22.0734 41.0841 22.6591 40.6861 23.3798 40.2881C23.56 40.2881 23.6501 40.3323 23.7402 40.4207C25.6322 41.659 26.5782 42.4992 26.6683 42.9414C26.6683 43.2068 26.4881 43.3395 26.0827 43.3837H25.2268C23.8753 44.0028 22.2086 44.5335 20.2715 45.0199C20.3166 45.0199 20.3616 45.0642 20.4067 45.0642C20.5418 45.1526 20.5869 45.241 20.5869 45.4179C20.5418 45.5948 20.3616 45.7275 20.0463 45.9044C19.776 46.0371 19.6409 46.214 19.6409 46.3908V49.5749C20.3616 48.6905 20.8572 47.6291 21.2175 46.3908C23.4699 47.3638 24.6412 47.9387 24.6412 48.204C24.6412 48.3809 24.2808 48.5136 23.515 48.5136C22.4338 49.398 21.1274 50.0614 19.5958 50.4594V51.4765C22.5239 52.5379 24.0105 53.6434 24.1456 54.749C24.1456 55.6777 23.9204 56.2084 23.4249 56.3853C23.1546 56.5179 22.8393 56.5622 22.4338 56.5622C21.7581 56.5622 21.3527 55.9873 21.1274 54.8817C20.8572 53.8203 20.3166 52.9359 19.5508 52.1399V56.0757C19.4607 57.9331 18.2444 58.906 15.9019 58.906C15.6767 58.906 15.5866 58.6849 15.4965 58.3311C15.4064 57.712 15.2262 57.1813 15.001 56.7833C14.5505 56.4295 13.9649 56.2084 13.154 56.1199C13.154 56.1199 13.1991 55.9873 13.1991 55.6777C13.9198 55.7662 14.6856 55.8104 15.4965 55.8104C16.0371 55.8104 16.3074 55.6335 16.3524 55.2797V52.6263C15.3163 53.8646 14.0099 54.9259 12.4333 55.8546C12.4333 56.4737 12.2981 56.7391 12.163 56.7391C12.0278 56.7391 11.7576 56.4737 11.4422 55.8546C11.1719 55.3681 10.8116 54.6164 10.4061 53.6434V53.9088C10.4512 56.2526 10.4962 58.0658 10.4962 59.304H24.7312C24.7312 57.9773 24.7312 56.0757 24.7312 53.6877L24.7763 48.5578C24.7763 47.3638 24.7312 46.3466 24.6412 45.5506C27.2539 45.7717 28.6053 46.1255 28.6053 46.4793C28.6053 46.612 28.5152 46.7446 28.4251 46.8773C28.0648 47.01 27.8846 47.1426 27.8846 47.2311V53.7761C27.9296 57.1371 27.9747 59.3924 28.0197 60.5865C27.9296 61.1614 27.1638 61.4709 25.7223 61.4709C25.0466 61.4709 24.6862 61.294 24.6862 60.896C24.6862 60.6307 24.7312 60.3211 24.7312 59.9674H10.6314C10.6314 60.1885 10.6314 60.4538 10.6314 60.6307C10.5413 61.2056 9.77547 61.5152 8.37899 61.5152C7.65823 61.5152 7.29785 61.3383 7.29785 60.9403C7.3429 59.7905 7.38795 57.4024 7.38795 53.6434L7.43299 48.3809C7.43299 47.1869 7.38795 46.1697 7.29785 45.3737C9.91061 45.7275 11.262 46.0371 11.262 46.4351ZM15.3614 49.796C15.3614 50.7689 14.7307 51.2554 13.4694 51.2554C12.8837 51.2554 12.5234 50.9901 12.4333 50.5036V48.6905C12.3882 48.0271 12.1179 47.5407 11.6224 47.2311H12.163C14.2352 47.6733 15.3163 48.5578 15.3614 49.796Z" fill="#A43029"/>
<path d="M38.4706 40.5526C38.6959 40.6852 38.831 40.7737 38.831 40.8621C38.831 41.039 38.6058 41.1717 38.2004 41.2601C38.1103 41.3486 38.0652 41.3928 38.0202 41.3928V45.5498H38.2454C38.831 44.5769 39.1914 44.002 39.3716 43.9135C39.4617 43.9135 39.5518 43.9135 39.6419 43.9577C39.9572 44.2673 40.3176 44.5769 40.5879 44.9749C40.9032 45.3287 41.0384 45.6824 41.0384 45.9036C41.0384 46.0805 40.9483 46.1689 40.7681 46.1689H38.0202V49.353C38.8761 49.0434 39.6419 48.6454 40.3176 48.2474C40.3626 48.2916 40.4527 48.3801 40.5428 48.5569C39.8221 49.4856 39.0112 50.3259 38.0202 51.0777V57.8438C38.0202 60.2319 36.8039 61.4259 34.4164 61.4259C34.101 61.3817 34.0109 60.9837 34.0109 60.2319C33.9208 59.8338 33.7857 59.4801 33.5605 59.2147C33.3352 58.9052 32.8847 58.6398 32.2541 58.4629C32.2541 58.3303 32.209 58.1534 32.209 57.888C32.7496 57.9765 33.5605 58.0207 34.5515 58.0649C34.9119 58.0649 35.0921 57.8438 35.0921 57.4016V53.0235C34.7317 53.2446 34.3713 53.4657 33.9659 53.6426C33.9659 54.2617 33.8307 54.5713 33.6506 54.5713C33.5154 54.5713 33.2451 54.2617 32.8847 53.6426C32.5244 53.0235 32.1189 52.0948 31.5784 50.8566C32.8847 50.6797 34.056 50.4585 35.1371 50.1932V46.1247C33.7857 46.1689 32.9298 46.2131 32.6595 46.2573C32.4793 45.9036 32.2991 45.5498 32.164 45.2402C32.6595 45.3729 33.6956 45.4613 35.1371 45.4613V42.8964C35.1371 41.6581 35.047 40.7295 34.9569 40.0219C36.1732 40.243 37.3445 40.4199 38.4706 40.5526ZM42.2546 47.1418C42.3898 47.584 42.4348 48.0263 42.4799 48.5127H51.129C51.9849 47.6283 52.4804 47.186 52.6606 47.186C53.0661 47.3187 53.5165 47.6283 54.0121 48.1147C54.7328 48.7781 55.1382 49.1761 55.1382 49.353C55.0932 49.5299 54.913 49.6625 54.6878 49.6625C54.3724 49.751 54.1021 49.751 53.967 49.751C53.3814 50.2817 52.7057 50.7681 51.8498 51.2103C52.03 51.343 52.2102 51.4757 52.3453 51.6083C52.8408 51.9621 53.1111 52.2717 53.2462 52.4928C53.2462 52.8466 52.9309 53.1119 52.2552 53.2004C51.4443 54.7482 50.4533 56.0749 49.192 57.1362C50.9488 57.7111 52.9309 57.9323 55.1382 57.9323V58.5072C54.7779 58.5072 54.5076 58.7283 54.2823 59.1263C54.1022 59.4801 53.922 60.0992 53.7868 60.851C53.7418 61.3374 53.5616 61.5586 53.3363 61.5586C50.8137 61.1605 48.6514 60.2761 46.8044 58.8167C44.507 60.1434 41.7591 60.9837 38.4706 61.4259L38.3355 60.9837C41.1735 60.055 43.561 58.9052 45.3629 57.4016C44.4169 56.2518 43.561 54.5713 42.8403 52.4486C42.2096 52.4928 41.7591 52.4928 41.3987 52.5813C41.3987 52.4486 41.3987 52.3601 41.3086 52.1832C41.2185 52.2275 41.0834 52.2275 40.9933 52.2275C40.0023 52.1832 39.5067 51.741 39.5067 50.9008C39.5067 50.4585 39.5968 50.1932 39.8671 50.0163C39.9122 49.9279 40.3176 49.6183 41.0384 49.0876C41.5339 48.6012 41.8042 47.982 41.8943 47.0976H42.2546V47.1418ZM54.3724 42.233C54.3724 42.3657 54.2823 42.4542 54.1022 42.4984C53.8319 42.4984 53.5165 42.4984 53.0661 42.3657C51.4443 42.7637 47.2549 42.9406 40.4978 42.9406C40.4527 42.9406 40.4527 42.8079 40.4077 42.5868C45.0476 41.9677 48.7865 41.1275 51.5344 40.0219C53.4264 41.3486 54.3724 42.1004 54.3724 42.233ZM45.1827 46.3458C45.1827 47.3187 44.5971 47.7609 43.516 47.7609C43.2006 47.7609 42.9304 47.6283 42.6601 47.4071C42.4799 47.0534 42.3447 46.5669 42.3447 45.992C42.2997 45.5055 42.2546 45.1518 42.1645 44.9306C42.0294 44.5326 41.7591 44.2231 41.3086 43.9577C41.3537 43.8251 41.4438 43.7366 41.5789 43.6482C43.9664 43.8693 45.1827 44.7538 45.1827 46.3458ZM45.2278 51.8295H48.8766C49.7325 51.0777 50.3182 50.6354 50.6335 50.5912C50.6785 50.6354 50.7686 50.6797 50.8587 50.6797C50.9939 50.2374 51.084 49.751 51.2191 49.2203H42.4799C42.4799 49.353 42.5249 49.4856 42.5249 49.5741C42.5249 50.5912 42.3447 51.343 42.0294 51.7852C42.7952 51.7852 43.8313 51.8295 45.2278 51.8295ZM46.7594 56.0749C47.7955 54.9693 48.6063 53.7753 49.1469 52.4044H44.462C44.0115 52.4044 43.6511 52.4486 43.3358 52.4486C44.507 54.1733 45.6332 55.3673 46.7594 56.0749ZM49.2821 46.0362C49.2821 47.1418 48.8316 47.7167 47.8856 47.7167C46.8945 47.7167 46.399 47.3187 46.399 46.5227C46.399 46.4342 46.4441 46.1689 46.4891 45.8593C46.5342 45.6382 46.5342 45.4171 46.5342 45.2402C46.5342 44.5769 46.399 43.9577 46.1287 43.4713C46.2188 43.4713 46.3089 43.4271 46.399 43.3386C48.291 44.1346 49.192 45.0633 49.2821 46.0362ZM54.868 44.1789C54.868 44.4 54.5526 44.5326 53.922 44.5769C53.1562 45.992 51.8498 47.0976 50.0929 47.982C49.9127 47.982 49.8226 47.982 49.8226 47.8936C50.6335 46.6111 51.129 44.9749 51.3092 42.8964C53.6517 43.5597 54.868 44.002 54.868 44.1789Z" fill="#A43029"/>
<path d="M57.9312 5.74896H4.59485C2.07219 5.74896 0 7.78323 0 10.2597V62.5757C0 65.0522 2.07219 67.0865 4.59485 67.0865H57.9312C60.4538 67.0865 62.526 65.0964 62.526 62.6199V10.2597C62.526 7.739 60.4538 5.74896 57.9312 5.74896ZM57.9312 64.3446H4.5498C3.6038 64.3446 2.79295 63.5928 2.79295 62.6199V10.2597C2.79295 9.28681 3.6038 8.53502 4.5498 8.53502H57.8861C58.8772 8.53502 59.688 9.33104 59.688 10.2597V62.6199C59.688 63.5928 58.9222 64.3446 57.9312 64.3446Z" fill="#A43029"/>
<path d="M55.4988 35.7323H6.84741V37.1032H55.4988V35.7323Z" fill="#A43029"/>
</svg>
