<svg width="65" height="162" viewBox="0 0 65 162" fill="none" xmlns="http://www.w3.org/2000/svg">
<path d="M35.296 55.2112L34.1053 52.1296L32.399 52.7648L33.602 55.8464C32.7059 56.5756 32.3131 57.8106 32.755 58.9279C33.3197 60.3629 34.9277 61.0568 36.4008 60.5275C37.8738 59.9865 38.598 58.4104 38.0334 56.9755C37.5914 55.8464 36.4867 55.1642 35.296 55.2112Z" fill="#8BC0E2"/>
<path d="M53.9296 50.6241C53.905 50.5418 53.8805 50.4594 53.8191 50.4006C53.4018 49.495 52.3706 48.8834 50.7871 48.5893C50.4434 48.5188 50.0629 48.4835 49.6701 48.4599C46.6381 45.4607 45.2879 40.5678 40.9793 30.2527C35.4186 17.0443 22.2228 19.2672 20.4429 19.7495C20.2343 17.9264 19.7433 16.2209 19.0804 14.4449C18.5035 12.9159 17.3864 9.51672 15.1155 10.0578C12.5746 10.6576 13.7898 14.1391 14.4527 15.6093C15.1523 17.1266 16.0975 18.5262 17.0795 19.8788C17.3496 20.2552 17.681 20.7374 18.0616 21.1726C14.4404 23.8426 8.11867 30.3939 11.9117 41.0383C15.6802 51.5533 18.0002 56.0933 17.7915 60.2923C17.5092 60.551 17.2391 60.8333 17.0304 61.1156C16.0361 62.3741 15.6802 63.4915 15.9993 64.4442C16.0239 64.4912 16.0239 64.5148 16.0239 64.5501C16.0361 64.5736 16.0361 64.5971 16.0484 64.6089C17.5337 68.3962 28.0904 66.8436 37.2599 63.4444C46.3558 60.0571 55.2308 54.4585 53.9296 50.6241ZM14.3422 37.9567C13.9616 33.4637 14.8946 29.5588 16.9445 26.5478C17.4232 25.8421 18.3684 25.548 19.1909 25.8421C19.2154 25.8538 19.24 25.8656 19.2645 25.8656C20.3816 26.2772 20.8726 27.5593 20.2097 28.512C18.6017 30.8408 17.8897 33.9812 18.1843 37.6509C18.5403 41.8498 20.1606 46.2958 22.8366 50.4594C23.3767 51.3063 23.0944 52.4119 22.2106 52.9412C22.1983 52.9529 22.186 52.9647 22.1615 52.9647C21.2654 53.5057 20.0747 53.2352 19.5223 52.3766C16.564 47.719 14.7473 42.7202 14.3422 37.9567ZM36.5111 61.5155C27.0715 65.0205 19.6205 65.2205 18.8717 63.3151C18.8717 63.2915 18.8717 63.268 18.8717 63.2563C18.8594 63.221 18.8472 63.1974 18.8349 63.1622C18.6017 62.5153 19.1172 61.6684 19.5837 61.0803C21.6214 58.4927 26.961 55.3171 33.2091 53.0118C39.4572 50.7064 45.607 49.6008 48.8722 50.2242C49.621 50.3654 50.5785 50.6712 50.8362 51.2945C50.8608 51.3298 50.8608 51.3533 50.8608 51.3769C51.5728 53.3881 45.8771 58.034 36.5111 61.5155Z" fill="#8BC0E2"/>
<path d="M35.296 140.026L34.1053 136.945L32.399 137.58L33.602 140.662C32.7059 141.391 32.3131 142.626 32.755 143.743C33.3197 145.178 34.9277 145.872 36.4008 145.343C37.8738 144.802 38.598 143.226 38.0334 141.791C37.5914 140.662 36.4867 139.979 35.296 140.026Z" fill="#176FA7"/>
<path d="M53.9296 135.439C53.905 135.357 53.8805 135.275 53.8191 135.216C53.4018 134.31 52.3706 133.699 50.7871 133.405C50.4434 133.334 50.0629 133.299 49.6701 133.275C46.6381 130.276 45.2879 125.383 40.9793 115.068C35.4186 101.859 22.2228 104.082 20.4429 104.565C20.2343 102.742 19.7433 101.036 19.0804 99.2601C18.5035 97.7311 17.3864 94.3319 15.1155 94.8729C12.5746 95.4728 13.7898 98.9543 14.4527 100.425C15.1523 101.942 16.0975 103.341 17.0795 104.694C17.3496 105.07 17.681 105.553 18.0616 105.988C14.4404 108.658 8.11867 115.209 11.9117 125.853C15.6802 136.368 18.0002 140.909 17.7915 145.107C17.5092 145.366 17.2391 145.649 17.0304 145.931C16.0361 147.189 15.6802 148.307 15.9993 149.259C16.0239 149.306 16.0239 149.33 16.0239 149.365C16.0361 149.389 16.0361 149.412 16.0484 149.424C17.5337 153.211 28.0904 151.659 37.2599 148.26C46.3558 144.872 55.2308 139.274 53.9296 135.439ZM14.3422 122.772C13.9616 118.279 14.8946 114.374 16.9445 111.363C17.4232 110.657 18.3684 110.363 19.1909 110.657C19.2154 110.669 19.24 110.681 19.2645 110.681C20.3816 111.092 20.8726 112.374 20.2097 113.327C18.6017 115.656 17.8897 118.796 18.1843 122.466C18.5403 126.665 20.1606 131.111 22.8366 135.275C23.3767 136.121 23.0944 137.227 22.2106 137.756C22.1983 137.768 22.186 137.78 22.1615 137.78C21.2654 138.321 20.0747 138.05 19.5223 137.192C16.564 132.534 14.7473 127.535 14.3422 122.772ZM36.5111 146.331C27.0715 149.836 19.6205 150.036 18.8717 148.13C18.8717 148.107 18.8717 148.083 18.8717 148.071C18.8594 148.036 18.8472 148.013 18.8349 147.977C18.6017 147.33 19.1172 146.484 19.5837 145.896C21.6214 143.308 26.961 140.132 33.2091 137.827C39.4572 135.522 45.607 134.416 48.8722 135.039C49.621 135.181 50.5785 135.486 50.8362 136.11C50.8608 136.145 50.8608 136.169 50.8608 136.192C51.5728 138.203 45.8771 142.849 36.5111 146.331Z" fill="#176FA7"/>
</svg>
