<svg width="100" height="230" viewBox="0 0 100 230" fill="none" xmlns="http://www.w3.org/2000/svg">
<g clip-path="url(#clip0)">
<path d="M56.87 81.8452L54.74 76.335L51.6848 77.4707L53.8363 82.9809C52.2442 84.2849 51.5342 86.4932 52.3303 88.4912C53.3415 91.057 56.203 92.2979 58.8279 91.3515C61.4528 90.384 62.7437 87.5658 61.754 84.9999C60.9794 82.9809 59 81.7611 56.87 81.8452Z" fill="#8CC1E2"/>
<g clip-path="url(#clip1)">
<path d="M56.6603 81.802L54.5439 76.3245L51.511 77.4534L53.6493 82.931C52.0565 84.2272 51.3583 86.4224 52.1437 88.4085C53.1474 90.9591 56.0057 92.1926 58.6241 91.2518C61.2424 90.2901 62.5297 87.4886 61.526 84.938C60.7405 82.931 58.7768 81.7184 56.6603 81.802Z" fill="#8BC0E2"/>
<path d="M89.7812 73.6484C89.7375 73.5021 89.6939 73.3557 89.5848 73.2512C88.8429 71.6414 87.0101 70.5542 84.1955 70.0316C83.5845 69.9061 82.9081 69.8434 82.2099 69.8016C76.8206 64.4704 74.4205 55.7732 66.7619 37.4381C56.8778 13.9599 33.4222 17.9113 30.2584 18.7685C29.8874 15.5279 29.0147 12.4965 27.8364 9.33957C26.8109 6.6217 24.8254 0.579682 20.7888 1.54139C16.2723 2.60763 18.4324 8.79599 19.6106 11.4093C20.8543 14.1063 22.5344 16.5942 24.2799 18.9984C24.7599 19.6674 25.3491 20.5246 26.0254 21.2982C19.5888 26.044 8.35189 37.689 15.094 56.6095C21.7925 75.3 25.9164 83.37 25.5454 90.8337C25.0436 91.2936 24.5636 91.7954 24.1926 92.2971C22.4253 94.5341 21.7925 96.5203 22.3598 98.2137C22.4035 98.2973 22.4035 98.3392 22.4035 98.4019C22.4253 98.4437 22.4253 98.4855 22.4471 98.5064C25.0872 105.238 43.8517 102.479 60.1507 96.4366C76.3187 90.4155 92.094 80.464 89.7812 73.6484ZM19.4142 51.1319C18.7378 43.1456 20.3961 36.2046 24.0399 30.8525C24.8908 29.5981 26.5709 29.0754 28.0328 29.5981C28.0765 29.619 28.1201 29.6399 28.1637 29.6399C30.1493 30.3716 31.022 32.6505 29.8438 34.3439C26.9855 38.4834 25.72 44.0655 26.2436 50.5884C26.8764 58.052 29.7565 65.9548 34.5131 73.3557C35.4732 74.861 34.9713 76.8262 33.4003 77.767C33.3785 77.7879 33.3567 77.8088 33.3131 77.8088C31.7203 78.7705 29.6038 78.2897 28.6219 76.7635C23.3635 68.4845 20.1343 59.5991 19.4142 51.1319ZM58.8197 93.008C42.0407 99.2381 28.7965 99.5936 27.4655 96.2067C27.4655 96.1649 27.4655 96.123 27.4655 96.1021C27.4437 96.0394 27.4219 95.9976 27.4001 95.9349C26.9855 94.785 27.9019 93.2797 28.731 92.2344C32.353 87.6349 41.8444 81.9902 52.9504 77.8925C64.0563 73.7947 74.9878 71.8295 80.7917 72.9376C82.1226 73.1885 83.8245 73.732 84.2827 74.8401C84.3264 74.9028 84.3264 74.9446 84.3264 74.9864C85.5919 78.5615 75.4678 86.8196 58.8197 93.008Z" fill="#8BC0E2"/>
</g>
</g>
<g clip-path="url(#clip2)">
<path d="M56.87 208.845L54.74 203.335L51.6848 204.471L53.8363 209.981C52.2442 211.285 51.5342 213.493 52.3303 215.491C53.3415 218.057 56.203 219.298 58.8279 218.351C61.4528 217.384 62.7437 214.566 61.754 212C60.9794 209.981 59 208.761 56.87 208.845Z" fill="#176FA7"/>
<g clip-path="url(#clip3)">
<path d="M56.9843 208.802L54.8678 203.324L51.835 204.453L53.9732 209.931C52.3804 211.227 51.6822 213.422 52.4677 215.408C53.4714 217.959 56.3297 219.193 58.948 218.252C61.5663 217.29 62.8537 214.489 61.85 211.938C61.0645 209.931 59.1008 208.718 56.9843 208.802Z" fill="#176FA7"/>
<path d="M90.1051 200.648C90.0615 200.502 90.0179 200.356 89.9088 200.251C89.1669 198.641 87.3341 197.554 84.5194 197.032C83.9085 196.906 83.2321 196.843 82.5339 196.802C77.1445 191.47 74.7444 182.773 67.0859 164.438C57.2018 140.96 33.7461 144.911 30.5823 145.768C30.2114 142.528 29.3387 139.496 28.1604 136.34C27.1349 133.622 25.1494 127.58 21.1128 128.541C16.5962 129.608 18.7563 135.796 19.9346 138.409C21.1783 141.106 22.8583 143.594 24.6039 145.998C25.0839 146.667 25.673 147.525 26.3494 148.298C19.9128 153.044 8.67586 164.689 15.418 183.609C22.1165 202.3 26.2403 210.37 25.8694 217.834C25.3676 218.294 24.8875 218.795 24.5166 219.297C22.7493 221.534 22.1165 223.52 22.6838 225.214C22.7274 225.297 22.7274 225.339 22.7274 225.402C22.7493 225.444 22.7493 225.485 22.7711 225.506C25.4112 232.238 44.1757 229.479 60.4747 223.437C76.6427 217.416 92.418 207.464 90.1051 200.648ZM19.7382 178.132C19.0618 170.146 20.7201 163.205 24.3639 157.853C25.2148 156.598 26.8949 156.075 28.3568 156.598C28.4004 156.619 28.4441 156.64 28.4877 156.64C30.4733 157.372 31.346 159.65 30.1678 161.344C27.3095 165.483 26.044 171.066 26.5676 177.588C27.2004 185.052 30.0805 192.955 34.8371 200.356C35.7971 201.861 35.2953 203.826 33.7243 204.767C33.7025 204.788 33.6807 204.809 33.637 204.809C32.0442 205.771 29.9278 205.29 28.9459 203.763C23.6875 195.484 20.4582 186.599 19.7382 178.132ZM59.1437 220.008C42.3647 226.238 29.1205 226.594 27.7895 223.207C27.7895 223.165 27.7895 223.123 27.7895 223.102C27.7677 223.039 27.7459 222.998 27.724 222.935C27.3095 221.785 28.2259 220.28 29.055 219.234C32.677 214.635 42.1683 208.99 53.2743 204.892C64.3803 200.795 75.3117 198.83 81.1156 199.938C82.4466 200.188 84.1485 200.732 84.6067 201.84C84.6503 201.903 84.6503 201.945 84.6503 201.986C85.9159 205.561 75.7918 213.82 59.1437 220.008Z" fill="#176FA7"/>
</g>
</g>
<defs>
<clipPath id="clip0">
<rect width="77.412" height="101.603" fill="white" transform="translate(13 1)"/>
</clipPath>
<clipPath id="clip1">
<rect width="77" height="101" fill="white" transform="translate(13 1.43677)"/>
</clipPath>
<clipPath id="clip2">
<rect width="77.412" height="101.603" fill="white" transform="translate(13 128)"/>
</clipPath>
<clipPath id="clip3">
<rect width="77" height="101" fill="white" transform="translate(13.324 128.437)"/>
</clipPath>
</defs>
</svg>
